<?xml version="1.0" standalone="no"?>
<!DOCTYPE svg PUBLIC "-//W3C//DTD SVG 20010904//EN"
 "http://www.w3.org/TR/2001/REC-SVG-20010904/DTD/svg10.dtd">
<svg version="1.0" xmlns="http://www.w3.org/2000/svg"
 width="801.000000pt" height="639.000000pt" viewBox="0 0 801.000000 639.000000"
 preserveAspectRatio="xMidYMid meet">

<g transform="translate(0.000000,639.000000) scale(0.100000,-0.100000)"
fill="#000000" stroke="none">
<path d="M0 6380 c0 -7 1338 -10 3995 -10 l3995 0 0 -3185 c0 -2083 3 -3185
10 -3185 6 0 10 1105 10 3195 l0 3195 -4005 0 c-2663 0 -4005 -3 -4005 -10z"/>
<path d="M7654 6223 l30 -33 -30 -32 -29 -33 33 29 32 30 33 -30 32 -29 -29
33 -30 32 30 33 29 32 -32 -29 -33 -30 -32 30 -33 29 29 -32z"/>
<path d="M780 6185 c0 -30 5 -55 10 -55 6 0 10 25 10 55 0 30 -4 55 -10 55 -5
0 -10 -25 -10 -55z"/>
<path d="M821 6207 c-1 -46 13 -77 37 -77 30 0 42 22 41 70 -2 31 -3 36 -6 15
-7 -62 -13 -75 -33 -75 -20 0 -26 13 -33 75 -3 26 -4 25 -6 -8z"/>
<path d="M923 6233 c13 -3 17 -15 17 -54 0 -27 5 -49 10 -49 6 0 10 22 10 49
0 39 4 51 18 54 9 3 -3 5 -28 5 -25 0 -37 -2 -27 -5z"/>
<path d="M1063 6233 c-7 -2 -13 -9 -13 -14 0 -6 4 -8 9 -4 6 3 12 -16 14 -42
3 -48 3 -48 5 10 1 31 1 57 0 56 -2 0 -9 -3 -15 -6z"/>
<path d="M1166 6232 c-3 -5 4 -8 16 -8 31 1 33 -20 4 -45 -36 -31 -33 -49 7
-48 31 2 31 2 3 6 l-28 5 27 28 c19 20 25 34 20 49 -6 21 -39 29 -49 13z"/>
<path d="M1245 6217 c-12 -45 -2 -82 22 -85 25 -4 37 25 31 74 -4 39 -44 47
-53 11z m40 -33 c0 -28 -4 -39 -15 -39 -16 0 -26 45 -16 72 11 28 31 7 31 -33z"/>
<path d="M1326 6232 c-3 -5 4 -8 16 -8 31 1 33 -20 4 -45 -36 -31 -33 -49 7
-48 31 2 31 2 3 6 l-28 5 27 28 c19 20 25 34 20 49 -6 21 -39 29 -49 13z"/>
<path d="M1423 6233 c-7 -2 -13 -9 -13 -14 0 -6 4 -8 9 -4 6 3 12 -16 14 -42
3 -48 3 -48 5 10 1 31 1 57 0 56 -2 0 -9 -3 -15 -6z"/>
<path d="M118 6223 c7 -3 16 -2 19 1 4 3 -2 6 -13 5 -11 0 -14 -3 -6 -6z"/>
<path d="M692 6213 c-8 -8 -9 -13 -2 -13 5 0 10 -16 10 -35 0 -27 4 -35 18
-34 10 0 12 3 5 6 -15 5 -18 60 -4 65 5 2 4 8 -3 14 -8 8 -15 7 -24 -3z"/>
<path d="M120 6200 c-8 -5 -12 -11 -10 -14 3 -2 14 2 24 10 22 15 10 19 -14 4z"/>
<path d="M341 6153 c1 -32 4 -49 6 -37 3 16 10 20 28 16 19 -3 25 1 31 22 8
34 -1 56 -23 56 -17 -1 -17 -1 0 -11 21 -13 22 -48 1 -56 -19 -7 -36 15 -28
39 2 9 0 19 -6 23 -6 4 -10 -14 -9 -52z"/>
<path d="M431 6165 c2 -33 3 -35 6 -10 2 17 11 35 20 42 13 10 13 12 -6 10
-18 -1 -21 -7 -20 -42z"/>
<path d="M492 6198 c-19 -19 -15 -56 8 -63 28 -9 52 13 48 44 -3 29 -35 40
-56 19z m43 -28 c0 -16 -6 -26 -18 -28 -19 -4 -32 20 -23 44 9 25 41 13 41
-16z"/>
<path d="M572 6163 c-1 -30 -7 -53 -14 -56 -10 -4 -10 -6 0 -6 18 -1 24 20 19
70 l-4 44 -1 -52z"/>
<path d="M621 6196 c-27 -33 11 -88 40 -59 6 6 1 9 -12 9 -12 -1 -24 5 -26 12
-3 7 5 12 22 12 20 0 26 4 23 17 -4 23 -31 28 -47 9z m39 -6 c0 -5 -9 -10 -21
-10 -11 0 -17 5 -14 10 3 6 13 10 21 10 8 0 14 -4 14 -10z"/>
<path d="M6488 6193 c17 -2 47 -2 65 0 17 2 3 4 -33 4 -36 0 -50 -2 -32 -4z"/>
<path d="M81 5863 c1 -32 4 -46 6 -31 3 18 12 28 26 31 l22 4 -22 2 c-16 1
-23 7 -23 20 0 12 8 21 23 24 19 4 18 4 -5 6 -28 1 -28 0 -27 -56z"/>
<path d="M193 5865 c0 -33 2 -45 4 -27 2 18 2 45 0 60 -2 15 -4 0 -4 -33z"/>
<path d="M473 5903 c-4 -11 3 -23 20 -37 35 -28 36 -50 2 -44 -14 3 -25 1 -25
-4 0 -5 12 -8 28 -6 38 4 42 40 7 56 -31 14 -28 34 6 43 23 7 23 7 -4 8 -17 1
-30 -5 -34 -16z"/>
<path d="M153 5850 c0 -25 2 -35 4 -22 2 12 2 32 0 45 -2 12 -4 2 -4 -23z"/>
<path d="M241 5876 c-27 -33 11 -88 40 -59 6 6 1 9 -12 9 -12 -1 -24 5 -26 12
-3 7 5 12 22 12 20 0 26 4 23 17 -4 23 -31 28 -47 9z m39 -6 c0 -5 -9 -10 -21
-10 -11 0 -17 5 -14 10 3 6 13 10 21 10 8 0 14 -4 14 -10z"/>
<path d="M580 5879 l25 -11 -28 -10 c-37 -13 -33 -43 6 -44 26 -1 28 1 25 35
-3 30 -7 36 -28 38 l-25 3 25 -11z m20 -39 c0 -12 -28 -25 -36 -17 -9 9 6 27
22 27 8 0 14 -5 14 -10z"/>
<path d="M631 5863 c5 -16 12 -34 15 -42 2 -8 6 -12 9 -9 8 8 35 78 30 78 -3
0 -11 -15 -19 -32 l-14 -33 -7 33 c-4 17 -11 32 -16 32 -5 0 -4 -12 2 -27z"/>
<path d="M711 5876 c-27 -33 11 -88 40 -59 6 6 1 9 -12 9 -12 -1 -24 5 -26 12
-3 7 5 12 22 12 20 0 26 4 23 17 -4 23 -31 28 -47 9z m39 -6 c0 -5 -9 -10 -21
-10 -11 0 -17 5 -14 10 3 6 13 10 21 10 8 0 14 -4 14 -10z"/>
<path d="M2950 5520 c-8 -16 -8 -20 4 -20 9 0 20 9 26 20 8 16 8 20 -4 20 -9
0 -20 -9 -26 -20z"/>
<path d="M3042 5518 c-7 -7 -12 -17 -12 -24 0 -7 -6 -15 -12 -18 -10 -5 -10
-7 0 -12 7 -3 12 -24 12 -50 0 -32 4 -44 15 -44 11 0 15 12 15 45 0 33 4 45
15 45 8 0 15 5 15 10 0 6 -7 10 -15 10 -22 0 -18 21 5 27 11 3 20 9 20 14 0
13 -44 11 -58 -3z"/>
<path d="M4140 5505 c0 -19 -5 -25 -23 -25 -32 0 -47 -18 -47 -56 0 -40 15
-52 68 -52 l42 -1 0 80 c0 72 -2 79 -20 79 -15 0 -20 -7 -20 -25z m0 -80 c0
-24 -5 -35 -14 -35 -21 0 -29 17 -22 46 10 38 36 30 36 -11z"/>
<path d="M4210 5500 c0 -16 5 -30 10 -30 6 0 10 6 10 14 0 8 3 21 6 30 4 11 1
16 -10 16 -11 0 -16 -9 -16 -30z"/>
<path d="M2760 5445 l0 -75 40 0 c51 0 80 27 80 75 0 48 -29 75 -80 75 l-40 0
0 -75z m81 24 c15 -29 -3 -69 -31 -69 -17 0 -20 7 -20 45 0 38 3 45 20 45 10
0 24 -10 31 -21z"/>
<path d="M3700 5510 c0 -5 9 -10 20 -10 11 0 20 5 20 10 0 6 -9 10 -20 10 -11
0 -20 -4 -20 -10z"/>
<path d="M4700 5510 c0 -5 9 -10 20 -10 11 0 20 5 20 10 0 6 -9 10 -20 10 -11
0 -20 -4 -20 -10z"/>
<path d="M3619 5493 c-3 -35 3 -88 12 -105 10 -19 59 -25 59 -8 0 6 -7 10 -15
10 -10 0 -15 11 -15 35 0 24 5 35 15 35 8 0 15 5 15 10 0 6 -7 10 -15 10 -8 0
-15 7 -15 15 0 21 -40 19 -41 -2z"/>
<path d="M2918 5469 c-26 -15 -24 -75 2 -89 25 -14 72 -9 77 7 3 7 -8 10 -28
10 -18 -1 -34 4 -36 11 -3 8 8 12 37 12 38 0 41 2 34 23 -11 37 -49 48 -86 26z
m52 -19 c0 -5 -9 -10 -21 -10 -11 0 -17 5 -14 10 3 6 13 10 21 10 8 0 14 -4
14 -10z"/>
<path d="M3112 5468 c-17 -17 -15 -73 2 -87 24 -20 69 -9 85 20 13 24 13 29
-2 53 -19 28 -63 36 -85 14z m53 -44 c0 -19 -5 -29 -15 -29 -16 0 -25 28 -16
51 10 25 31 10 31 -22z"/>
<path d="M3230 5424 c0 -41 4 -54 15 -54 11 0 15 11 15 40 0 33 3 40 20 40 36
0 22 26 -15 27 l-35 1 0 -54z"/>
<path d="M3310 5424 c0 -47 2 -54 20 -54 17 0 20 7 20 40 0 29 4 40 15 40 11
0 15 -11 15 -40 0 -53 27 -56 32 -3 4 52 28 56 28 4 0 -34 3 -41 20 -41 17 0
20 7 20 44 0 25 -6 48 -12 53 -7 4 -46 9 -85 10 l-73 2 0 -55z"/>
<path d="M3510 5466 c0 -9 8 -12 25 -8 36 6 31 -15 -6 -23 -25 -6 -30 -11 -27
-33 3 -25 7 -27 51 -30 l47 -3 0 43 c0 24 -5 49 -12 56 -17 17 -78 16 -78 -2z
m50 -61 c0 -8 -7 -15 -15 -15 -16 0 -20 12 -8 23 11 12 23 8 23 -8z"/>
<path d="M3700 5425 c0 -48 2 -55 20 -55 18 0 20 7 20 55 0 48 -2 55 -20 55
-18 0 -20 -7 -20 -55z"/>
<path d="M3772 5468 c-17 -17 -15 -73 2 -87 24 -20 69 -9 85 20 13 24 13 29
-2 53 -19 28 -63 36 -85 14z m53 -44 c0 -19 -5 -29 -15 -29 -16 0 -25 28 -16
51 10 25 31 10 31 -22z"/>
<path d="M3880 5424 c0 -47 2 -54 20 -54 17 0 20 7 20 40 0 29 4 40 15 40 11
0 15 -11 15 -40 0 -33 3 -40 20 -40 17 0 20 7 20 44 0 52 -12 64 -67 64 l-43
1 0 -55z"/>
<path d="M4260 5444 c0 -57 13 -72 65 -72 l45 0 0 54 c0 47 -2 54 -20 54 -17
0 -20 -7 -20 -40 0 -29 -4 -40 -15 -40 -11 0 -15 11 -15 40 0 33 -3 40 -20 40
-16 0 -20 -7 -20 -36z"/>
<path d="M4390 5424 c0 -47 2 -54 20 -54 17 0 20 7 20 40 0 29 4 40 15 40 11
0 15 -11 15 -40 0 -33 3 -40 20 -40 17 0 20 7 20 44 0 52 -12 64 -67 64 l-43
1 0 -55z"/>
<path d="M4538 5469 c-26 -15 -24 -75 2 -89 25 -14 72 -9 77 7 3 7 -8 10 -28
10 -18 -1 -34 4 -36 11 -3 8 8 12 37 12 38 0 41 2 34 23 -11 37 -49 48 -86 26z
m52 -19 c0 -5 -9 -10 -21 -10 -11 0 -17 5 -14 10 3 6 13 10 21 10 8 0 14 -4
14 -10z"/>
<path d="M4700 5425 c0 -48 2 -55 20 -55 18 0 20 7 20 55 0 48 -2 55 -20 55
-18 0 -20 -7 -20 -55z"/>
<path d="M4760 5424 c0 -47 2 -54 20 -54 17 0 20 7 20 40 0 29 4 40 15 40 11
0 15 -11 15 -40 0 -53 27 -56 32 -3 4 52 28 56 28 4 0 -34 3 -41 20 -41 17 0
20 7 20 44 0 25 -6 48 -12 53 -7 4 -46 9 -85 10 l-73 2 0 -55z"/>
<path d="M4960 5466 c0 -9 8 -12 25 -8 36 6 31 -15 -6 -23 -25 -6 -30 -11 -27
-33 3 -25 7 -27 51 -30 l47 -3 0 43 c0 24 -5 49 -12 56 -17 17 -78 16 -78 -2z
m50 -61 c0 -8 -7 -15 -15 -15 -16 0 -20 12 -8 23 11 12 23 8 23 -8z"/>
<path d="M5082 5468 c-17 -17 -15 -73 3 -88 8 -7 24 -10 36 -7 13 3 19 1 16
-6 -2 -7 -16 -12 -30 -12 -16 1 -27 -5 -27 -12 0 -8 13 -13 34 -13 47 0 66 29
66 97 l0 53 -43 0 c-24 0 -48 -5 -55 -12z m58 -43 c0 -24 -5 -35 -14 -35 -21
0 -29 17 -22 46 10 38 36 30 36 -11z"/>
<path d="M5218 5469 c-26 -15 -24 -75 2 -89 25 -14 72 -9 77 7 3 7 -8 10 -28
10 -18 -1 -34 4 -36 11 -3 8 8 12 37 12 38 0 41 2 34 23 -11 37 -49 48 -86 26z
m52 -19 c0 -5 -9 -10 -21 -10 -11 0 -17 5 -14 10 3 6 13 10 21 10 8 0 14 -4
14 -10z"/>
<path d="M2475 4680 c-48 -8 -91 -25 -99 -38 -3 -5 18 -12 48 -16 137 -16 261
-79 386 -195 41 -38 60 -49 60 -36 0 20 -58 108 -106 163 -84 95 -191 140
-289 122z"/>
<path d="M6434 4630 c-23 -3 -49 -14 -58 -23 -10 -9 -22 -17 -27 -17 -5 0 -9
-6 -9 -13 0 -9 30 -17 93 -26 50 -8 97 -19 102 -26 6 -6 31 -20 58 -30 26 -10
47 -22 47 -27 0 -4 12 -13 27 -19 15 -5 36 -19 47 -30 19 -18 57 -53 131 -119
l27 -25 -7 25 c-4 14 -14 36 -24 49 -9 13 -21 32 -27 42 -15 27 -82 105 -129
154 -62 63 -167 98 -251 85z"/>
<path d="M1440 4623 c-71 -26 -114 -51 -148 -85 -53 -53 -142 -201 -129 -215
4 -4 36 24 71 60 36 37 68 67 72 67 4 0 17 8 28 19 52 46 214 111 277 111 41
0 36 15 -11 34 -39 15 -129 20 -160 9z"/>
<path d="M5389 4556 c-36 -13 -139 -105 -139 -125 0 -5 -4 -20 -9 -33 -5 -13
-9 -27 -9 -32 0 -5 -4 -12 -9 -15 -25 -19 -57 -141 -36 -141 13 0 53 44 53 58
0 6 11 19 25 28 14 9 25 25 25 35 0 11 6 19 14 19 7 0 20 10 29 23 8 12 31 31
51 42 20 11 36 23 36 27 0 5 6 8 13 8 6 0 25 7 41 15 15 8 32 12 37 9 5 -3 9
-1 9 5 0 5 23 11 52 13 71 4 72 22 3 53 -64 28 -129 32 -186 11z"/>
<path d="M2508 4260 c-31 -4 -73 -17 -93 -29 -20 -11 -41 -21 -46 -21 -6 0
-37 -21 -70 -46 -49 -38 -59 -50 -53 -67 11 -38 19 -38 60 -6 119 94 255 126
387 90 85 -23 176 -66 184 -87 3 -7 13 -16 24 -19 10 -4 19 -12 19 -19 0 -7
11 -22 25 -34 14 -12 25 -27 25 -32 0 -6 10 -24 22 -41 49 -66 72 -228 43
-307 -36 -100 -37 -102 -59 -102 -12 0 -30 -6 -41 -14 -20 -13 -20 -11 -20 88
0 85 -4 108 -22 147 -13 25 -23 51 -23 57 0 7 -5 12 -10 12 -6 0 -15 10 -21
23 -6 12 -31 38 -57 57 -26 19 -50 39 -53 44 -12 16 -159 45 -197 39 -83 -14
-166 -65 -197 -124 -13 -24 -9 -44 48 -239 l62 -214 52 -28 c74 -40 121 -44
167 -13 20 14 41 25 47 25 6 0 27 9 47 19 20 11 58 30 84 42 31 16 43 26 35
32 -7 4 1 5 16 1 26 -6 72 7 129 37 29 15 199 11 230 -5 17 -9 30 -11 34 -5 3
5 -14 18 -38 29 -47 21 -139 27 -182 10 -31 -11 -32 -5 -9 41 14 27 18 61 18
169 l0 135 -39 78 c-22 44 -45 81 -53 84 -7 3 -13 10 -13 16 0 9 -45 54 -98
98 -8 6 -44 26 -80 44 -75 36 -180 49 -284 35z m176 -405 c42 -18 78 -56 106
-111 24 -47 25 -53 3 -70 -17 -12 -17 -14 5 -34 29 -27 31 -96 3 -105 -33 -10
-68 11 -75 45 -9 48 -8 57 11 76 13 13 14 19 5 22 -6 2 -12 8 -12 14 0 6 -17
27 -37 48 -47 46 -127 71 -168 52 l-27 -12 26 -31 c19 -23 26 -41 25 -72 -1
-58 -10 -77 -49 -97 l-33 -17 54 -57 c69 -70 52 -74 -21 -4 -30 28 -59 50 -65
49 -5 -1 -5 3 2 10 9 9 5 18 -18 39 -26 25 -29 35 -29 86 0 70 17 94 69 94 27
0 32 3 21 10 -13 8 -13 10 2 10 10 0 15 6 12 18 -10 42 117 67 190 37z m131
-195 c3 -6 -1 -7 -9 -4 -18 7 -21 14 -7 14 6 0 13 -4 16 -10z m10 -190 c-3 -5
-12 -10 -18 -10 -7 0 -6 4 3 10 19 12 23 12 15 0z m-90 -40 c-3 -5 -14 -10
-23 -9 -14 0 -13 2 3 9 27 11 27 11 20 0z m-68 -36 c-3 -3 -12 -4 -19 -1 -8 3
-5 6 6 6 11 1 17 -2 13 -5z"/>
<path d="M1360 4216 c-112 -18 -214 -79 -297 -179 -13 -15 -23 -31 -23 -36 0
-4 -8 -19 -18 -32 -25 -32 -60 -141 -68 -210 -6 -51 4 -105 41 -229 4 -12 -6
-14 -56 -12 -63 4 -149 -19 -149 -40 0 -6 9 -7 23 -2 12 4 63 9 113 11 75 4
101 0 150 -17 32 -12 68 -24 79 -27 11 -2 39 -14 62 -25 23 -11 49 -18 58 -14
9 3 14 2 11 -3 -3 -4 18 -20 47 -35 29 -15 75 -40 102 -56 28 -17 58 -33 68
-36 9 -4 17 -10 17 -15 0 -5 9 -9 19 -9 11 0 23 -5 26 -10 10 -17 85 -51 96
-44 6 3 -8 18 -30 32 l-41 26 59 29 c51 24 130 91 182 153 35 42 77 152 88
229 14 97 -3 208 -46 294 -29 60 -40 75 -95 129 -52 51 -56 54 -118 86 -46 24
-180 58 -215 55 -5 -1 -44 -7 -85 -13z m208 -80 c108 -33 196 -96 245 -176 11
-19 25 -38 29 -41 4 -3 19 -43 34 -90 19 -64 24 -97 20 -139 -6 -65 -40 -164
-67 -198 -10 -14 -19 -28 -19 -32 0 -14 -84 -99 -125 -126 -22 -14 -62 -33
-89 -41 -46 -14 -51 -14 -93 8 -57 29 -60 36 -21 44 18 4 47 18 65 31 17 13
35 24 40 24 14 0 70 64 104 120 34 54 34 57 34 171 l0 117 -41 48 c-23 27 -63
62 -90 79 -43 26 -58 29 -129 30 -87 0 -141 -19 -219 -80 -103 -81 -161 -244
-127 -363 l10 -33 -49 3 c-26 2 -46 7 -43 11 3 4 -6 29 -18 55 -16 33 -24 71
-27 126 -4 68 -1 88 23 150 66 168 165 262 325 305 99 26 131 26 228 -3z m-66
-295 c28 -11 80 -57 101 -91 22 -36 32 -107 17 -126 -11 -12 -10 -13 3 -8 14
5 14 -1 -5 -45 -14 -34 -26 -50 -35 -47 -8 4 -13 -2 -13 -15 0 -32 -62 -89
-98 -89 -49 0 -57 48 -15 92 20 21 36 28 65 28 33 0 39 4 45 28 4 15 7 53 7
85 1 53 -2 60 -33 89 -26 24 -43 32 -75 32 l-41 1 -1 -41 c-1 -68 -67 -134
-134 -133 -52 1 -65 10 -68 51 -7 83 34 139 113 154 37 7 38 8 15 14 l-25 7
25 11 c31 13 121 15 152 3z m-253 -293 c0 -39 -3 -48 -9 -33 -12 28 -12 85 0
85 6 0 10 -24 9 -52z m-69 -88 c12 -8 11 -10 -7 -10 -12 0 -25 5 -28 10 -8 13
15 13 35 0z m192 -90 c18 -11 29 -20 23 -20 -5 0 -23 9 -40 20 -39 26 -25 26
17 0z"/>
<path d="M6620 4100 c0 -5 -11 -10 -25 -10 -14 0 -25 -4 -25 -10 0 -5 -7 -10
-15 -10 -9 0 -18 -7 -21 -15 -4 -8 -12 -15 -20 -15 -8 0 -24 -16 -36 -35 -13
-19 -27 -35 -33 -35 -5 0 -22 -29 -37 -63 -42 -98 -63 -259 -46 -360 4 -29 10
-80 13 -114 6 -68 49 -202 96 -300 16 -34 29 -67 29 -73 0 -6 4 -9 9 -6 5 3
12 -6 15 -20 4 -14 17 -40 29 -56 38 -52 125 -138 140 -138 8 0 22 -9 31 -19
10 -11 26 -18 37 -16 10 2 19 0 19 -5 0 -5 7 -7 15 -4 19 8 19 -7 -2 -51 -17
-35 -14 -53 6 -40 6 3 11 13 11 21 0 14 54 120 86 169 9 14 13 34 10 47 -3 13
-3 17 0 11 3 -7 10 -13 15 -13 6 0 7 5 4 10 -3 6 -1 10 6 10 9 0 9 3 0 14 -9
11 -9 16 0 22 8 4 9 3 5 -4 -4 -7 -2 -12 3 -12 6 0 11 9 11 19 0 11 9 23 20
26 11 3 20 14 20 24 0 16 22 44 95 124 14 15 25 32 25 37 0 6 4 10 8 10 5 0
29 19 55 43 37 35 57 45 102 54 31 5 58 6 61 2 2 -5 11 -6 20 -2 13 5 13 8 -2
24 -9 11 -27 19 -38 19 -28 0 -116 -32 -116 -42 0 -4 -7 -8 -16 -8 -11 0 -14
6 -8 22 18 59 1 280 -27 330 -5 10 -9 29 -9 43 0 13 -9 39 -20 57 -11 18 -20
41 -20 51 0 9 -4 17 -10 17 -5 0 -17 17 -27 37 -18 39 -124 153 -142 153 -5 0
-17 10 -25 22 -9 12 -16 18 -16 13 0 -5 -5 -4 -12 3 -7 7 -19 12 -28 12 -10 0
-31 7 -47 15 -38 19 -173 31 -173 15z m215 -117 c33 -14 67 -31 76 -39 8 -8
20 -14 25 -15 14 -1 114 -126 114 -142 0 -8 11 -25 25 -38 13 -13 25 -34 25
-47 0 -12 7 -33 15 -45 13 -20 29 -100 39 -197 7 -69 -12 -181 -34 -202 -11
-10 -20 -23 -20 -28 0 -6 -4 -10 -10 -10 -5 0 -10 12 -10 28 0 101 -63 307
-108 354 -65 67 -89 88 -99 88 -7 0 -13 4 -13 8 0 31 -129 57 -189 38 -42 -14
-91 -75 -115 -145 -19 -54 -22 -82 -20 -146 5 -103 7 -116 22 -142 6 -12 12
-35 12 -52 0 -16 5 -33 10 -36 6 -3 10 -13 10 -21 0 -9 7 -22 15 -30 8 -9 15
-23 15 -32 0 -20 115 -169 126 -164 4 2 11 -3 16 -12 5 -9 15 -16 22 -16 8 0
19 -6 26 -14 6 -8 17 -13 23 -11 7 3 18 1 25 -4 12 -7 11 -14 -2 -40 -15 -27
-21 -31 -59 -31 -23 1 -51 6 -63 13 -43 25 -134 102 -134 113 0 7 -6 14 -13
17 -7 2 -27 34 -46 71 -18 36 -37 66 -42 66 -5 0 -9 8 -9 18 0 9 -7 30 -15 46
-8 15 -15 35 -15 43 0 8 -4 12 -9 8 -6 -3 -12 16 -16 42 -3 27 -10 65 -16 87
-25 92 -30 219 -12 308 24 127 26 133 33 138 4 3 16 23 28 45 29 57 89 116
135 131 9 4 17 10 17 15 0 27 134 16 215 -18z m15 -398 c6 3 10 -1 10 -9 0 -9
4 -15 9 -13 12 3 77 -84 84 -115 4 -14 10 -34 14 -44 4 -12 3 -15 -5 -10 -19
12 -14 -12 6 -24 16 -11 16 -11 0 -6 -25 8 -22 -5 7 -36 20 -21 25 -38 25 -75
0 -69 -11 -80 -43 -47 -15 15 -27 35 -27 45 0 11 -4 19 -10 19 -13 0 -13 63 0
76 12 12 -9 64 -26 64 -7 0 -24 16 -39 36 -15 19 -29 33 -32 30 -3 -3 -17 1
-32 8 -33 16 -56 11 -75 -19 -14 -21 -14 -25 9 -47 14 -15 30 -51 41 -92 14
-57 15 -74 4 -109 -7 -23 -17 -45 -23 -48 -12 -9 20 -56 68 -97 19 -17 30 -34
25 -37 -5 -3 -19 5 -31 19 -12 13 -26 23 -33 20 -6 -2 -17 9 -24 26 -8 16 -20
30 -27 30 -7 0 -16 7 -19 16 -3 8 -2 12 4 9 6 -3 10 -2 10 2 0 5 -9 14 -20 21
-25 15 -65 102 -75 159 -6 41 14 103 34 103 5 0 11 9 14 21 3 12 10 18 16 14
6 -3 11 -2 11 4 0 5 -7 14 -15 19 -14 7 -13 11 6 33 11 13 24 29 27 35 10 17
84 32 105 22 9 -5 22 -6 27 -3z"/>
<path d="M2191 4044 c-125 -199 -92 -466 77 -631 54 -52 125 -98 169 -109 44
-11 14 25 -43 52 -30 14 -54 30 -54 35 0 5 -5 9 -10 9 -15 0 -80 64 -80 79 0
6 -4 11 -9 11 -5 0 -26 35 -48 78 -35 71 -38 84 -41 179 -4 101 -4 101 38 187
22 47 45 86 50 86 8 0 -4 57 -14 67 -3 3 -18 -17 -35 -43z"/>
<path d="M5381 4044 c-22 -6 -43 -9 -46 -6 -3 3 -5 1 -5 -4 0 -5 -9 -10 -20
-11 -29 -2 -108 -54 -115 -75 -4 -10 -13 -18 -21 -18 -8 0 -17 -8 -21 -17 -3
-10 -14 -26 -24 -36 -11 -10 -22 -30 -25 -45 -4 -15 -13 -34 -20 -42 -20 -23
-27 -65 -31 -194 -3 -77 -1 -122 6 -129 6 -6 11 -21 11 -34 0 -13 4 -23 9 -23
5 0 12 -18 16 -40 4 -22 13 -47 21 -54 8 -8 14 -22 14 -30 0 -9 6 -16 13 -16
8 0 7 -3 -3 -10 -8 -5 -17 -6 -20 -1 -17 25 -210 53 -210 31 0 -5 -7 -10 -17
-10 -9 0 -13 -3 -9 -7 4 -4 36 -6 72 -5 38 1 86 -4 117 -14 68 -21 107 -38
107 -45 0 -3 7 -6 15 -7 8 -1 22 -3 30 -4 8 -1 15 -5 15 -9 0 -4 11 -10 25
-13 14 -4 25 -11 25 -16 0 -6 6 -10 13 -10 7 0 23 -9 34 -19 12 -11 23 -17 26
-14 3 3 -6 16 -21 29 -15 13 -22 24 -15 24 6 0 18 -7 27 -15 8 -8 19 -15 24
-15 5 0 7 -11 4 -25 -3 -20 -1 -24 12 -19 9 3 16 1 16 -5 0 -15 27 -14 34 2 3
6 4 3 3 -8 -1 -12 3 -19 11 -18 6 2 12 -1 12 -7 0 -5 10 -14 21 -21 17 -9 24
-8 31 2 8 11 9 10 4 -3 -3 -10 -1 -18 4 -18 6 0 10 -7 10 -15 0 -9 6 -12 15
-9 9 4 15 0 15 -7 0 -11 3 -11 10 1 6 10 10 11 10 3 0 -18 33 -50 60 -58 17
-5 20 -4 15 5 -5 9 -4 11 4 6 7 -4 10 -13 8 -19 -4 -13 16 -37 32 -37 6 0 23
-13 38 -30 14 -16 32 -30 40 -30 7 0 13 -5 13 -10 0 -6 12 -16 28 -22 15 -7
34 -21 43 -30 9 -10 20 -18 24 -18 7 0 23 -13 85 -70 15 -14 37 -31 49 -38 19
-11 21 -10 21 9 0 11 -4 17 -10 14 -5 -3 -10 1 -10 10 0 10 -6 15 -13 12 -7
-3 -22 8 -33 24 -10 16 -22 29 -26 29 -5 0 -8 4 -8 9 0 6 9 8 21 6 11 -2 31 2
43 10 13 8 26 12 29 8 4 -3 7 -2 7 3 0 5 9 10 20 11 27 2 120 95 120 121 0 11
4 23 9 26 4 3 12 20 16 38 4 18 10 40 13 48 7 18 6 193 -1 236 -10 66 -19 94
-28 94 -5 0 -9 11 -9 25 0 24 -65 175 -80 185 -4 3 -10 19 -14 36 -4 16 -16
36 -26 44 -11 8 -20 22 -20 31 0 10 -3 19 -7 21 -17 7 -63 70 -57 79 3 5 0 9
-7 9 -6 0 -33 23 -59 50 -26 28 -52 50 -56 50 -5 0 -15 9 -22 20 -7 12 -17 18
-22 15 -6 -3 -10 1 -10 10 0 11 -5 15 -15 11 -8 -3 -15 -2 -15 3 0 5 -16 16
-35 25 -19 9 -40 22 -47 29 -7 7 -49 25 -93 39 -86 28 -157 32 -224 12z m143
-83 c3 -5 16 -7 28 -4 12 4 26 0 32 -8 10 -12 21 -16 76 -21 8 0 17 -4 20 -7
3 -3 25 -17 50 -31 25 -13 54 -32 64 -42 11 -10 23 -18 28 -18 4 0 16 -8 26
-17 11 -10 33 -29 50 -43 17 -14 31 -30 32 -37 0 -7 7 -10 17 -6 10 4 14 2 10
-4 -4 -6 0 -18 8 -26 8 -9 15 -19 15 -24 0 -5 9 -15 20 -23 11 -8 20 -19 20
-26 0 -6 9 -19 20 -29 11 -10 20 -24 20 -32 0 -7 5 -13 10 -13 6 0 10 -7 10
-16 0 -8 7 -22 15 -30 8 -9 15 -24 15 -35 0 -10 5 -19 10 -19 6 0 10 -6 10
-14 0 -7 7 -19 15 -26 8 -7 12 -16 9 -21 -3 -5 4 -29 15 -52 16 -34 28 -105
32 -182 2 -43 -16 -147 -30 -180 -20 -45 -81 -144 -81 -132 0 8 -76 -28 -83
-40 -3 -5 -35 -10 -71 -11 -55 -3 -68 0 -85 17 -12 12 -25 21 -31 21 -5 0 -10
7 -10 16 0 8 -5 12 -10 9 -6 -3 -13 1 -16 9 -3 9 -10 14 -14 11 -4 -3 -10 1
-13 9 -4 9 2 13 16 11 12 0 34 5 50 12 15 7 27 10 27 6 0 -5 4 -2 9 6 5 8 16
16 25 17 29 4 73 49 96 98 51 106 14 372 -62 448 -10 10 -18 25 -18 34 0 8 -4
12 -10 9 -5 -3 -10 -2 -10 2 0 21 -126 137 -140 128 -4 -3 -12 4 -15 16 -4 11
-9 18 -12 16 -3 -3 -27 1 -55 9 -27 9 -52 13 -56 10 -3 -3 -11 -1 -18 4 -22
19 -155 -6 -175 -34 -4 -5 -12 -5 -18 -2 -7 5 -11 -1 -11 -14 0 -16 -5 -20
-15 -16 -10 4 -27 -14 -55 -56 -22 -34 -40 -64 -41 -67 0 -4 -2 -15 -4 -26
-13 -70 -14 -117 -4 -170 7 -33 15 -64 19 -70 4 -5 10 -22 14 -37 7 -32 -7
-37 -36 -11 -10 9 -31 16 -46 16 -25 0 -28 3 -24 26 3 14 1 23 -3 19 -9 -8
-35 36 -35 59 0 8 -4 11 -10 8 -6 -3 -10 4 -10 17 0 13 -5 29 -12 36 -6 6 -13
61 -16 134 -4 118 -3 127 22 179 14 31 26 62 26 69 0 7 26 38 58 69 66 66 152
111 226 118 28 3 53 7 55 9 8 7 30 4 35 -5z m81 -394 c17 -3 42 -10 57 -16 29
-11 148 -123 148 -140 0 -6 6 -8 14 -5 10 4 12 -2 9 -20 -4 -19 -1 -26 11 -26
9 0 16 -8 16 -18 0 -11 7 -33 16 -51 9 -18 14 -41 11 -52 -3 -11 0 -19 6 -19
7 0 13 -11 13 -25 2 -20 -1 -23 -11 -15 -11 9 -13 4 -11 -24 4 -43 -9 -68 -23
-46 -6 8 -13 11 -18 7 -4 -5 -2 -12 5 -16 11 -6 11 -13 0 -37 -16 -36 -49 -70
-65 -68 -7 1 -20 2 -28 3 -30 2 -65 48 -65 84 0 26 6 36 25 45 14 6 25 16 25
21 0 6 6 8 13 6 26 -9 67 -13 68 -7 13 86 -1 176 -31 203 -10 8 -20 25 -24 37
-4 11 -16 24 -27 27 -10 4 -19 13 -19 22 0 9 -6 13 -15 10 -8 -4 -17 -2 -21 4
-3 6 -12 8 -19 5 -7 -2 -17 0 -22 5 -5 5 -17 7 -26 3 -19 -7 -23 -29 -7 -39
14 -9 5 -68 -14 -97 -32 -48 -105 -64 -155 -34 -10 6 -12 4 -8 -10 3 -11 8
-41 11 -69 l6 -50 -13 38 c-7 23 -16 35 -21 30 -5 -5 -7 -1 -3 10 4 10 -1 33
-10 50 -16 31 -15 31 2 17 17 -13 18 -13 10 0 -4 8 -14 22 -20 30 -18 21 -24
89 -12 125 14 39 54 70 85 66 20 -2 23 1 18 14 -3 9 -4 20 -2 24 5 8 70 6 121
-2z m-105 -467 c0 -5 -4 -10 -10 -10 -5 0 -10 5 -10 10 0 6 5 10 10 10 6 0 10
-4 10 -10z m150 -136 c0 -2 -7 -4 -15 -4 -8 0 -15 4 -15 10 0 5 7 7 15 4 8 -4
15 -8 15 -10z"/>
<path d="M5505 3540 c3 -5 14 -10 23 -10 15 0 15 2 2 10 -20 13 -33 13 -25 0z"/>
<path d="M5550 3521 c0 -6 4 -13 10 -16 6 -3 7 1 4 9 -7 18 -14 21 -14 7z"/>
<path d="M2300 3775 c-6 -146 15 -217 89 -305 l30 -35 -53 180 c-65 224 -64
220 -66 160z"/>
<path d="M2539 3334 c-6 -8 -24 -14 -39 -14 -23 0 -27 -4 -23 -20 6 -24 4 -25
58 1 58 27 75 47 40 47 -13 0 -30 -7 -36 -14z"/>
<path d="M3100 3313 c0 -5 36 -17 80 -27 45 -10 79 -22 78 -26 -5 -12 -117
-100 -128 -100 -5 0 -10 -3 -10 -8 0 -6 -64 -54 -119 -87 -9 -5 -29 -19 -46
-31 -16 -11 -61 -38 -100 -58 -38 -21 -74 -42 -79 -47 -6 -5 -16 -9 -23 -9 -7
0 -31 -11 -53 -25 -22 -14 -46 -25 -54 -25 -16 0 -42 -28 -33 -36 3 -3 23 3
44 13 21 11 67 34 103 52 36 17 88 44 115 61 28 16 71 41 98 56 26 15 47 31
47 36 0 4 5 8 10 8 12 0 123 80 128 92 2 4 8 8 14 8 5 0 34 21 64 46 30 26 58
44 62 40 4 -4 8 -109 9 -233 3 -201 1 -233 -18 -302 -11 -42 -25 -94 -30 -116
-16 -65 -137 -314 -170 -351 -10 -11 -19 -23 -19 -26 0 -3 -17 -24 -37 -46
-56 -60 -62 -69 -55 -76 3 -4 -1 -4 -11 -1 -12 5 -22 -2 -37 -27 -11 -19 -31
-41 -45 -48 -14 -7 -25 -22 -25 -33 0 -16 5 -14 43 14 49 39 58 50 50 63 -3 5
-1 6 5 2 21 -13 124 108 189 222 135 237 192 426 200 662 3 96 0 154 -10 203
-14 64 -10 82 12 55 46 -56 61 -77 61 -86 0 -5 7 -12 15 -16 19 -7 19 -3 -4
42 -23 45 -62 87 -108 119 -47 32 -213 67 -213 46z"/>
<path d="M2426 3259 c-12 -11 -15 -19 -7 -19 21 0 52 21 46 31 -9 13 -17 11
-39 -12z"/>
<path d="M890 3231 c-14 -4 -40 -11 -58 -16 -42 -10 -167 -131 -185 -179 -12
-30 12 -26 34 6 28 41 81 97 92 98 5 0 5 -14 2 -32 -11 -47 -8 -192 5 -283 28
-201 29 -205 57 -205 10 0 13 5 8 18 -19 47 -44 197 -34 208 7 8 7 14 -1 19
-14 9 -14 302 1 311 6 3 14 3 18 -2 3 -5 19 -18 35 -29 16 -11 39 -27 50 -35
12 -8 37 -24 55 -35 18 -11 46 -30 61 -42 15 -13 35 -23 44 -23 9 0 16 -4 16
-8 0 -5 17 -16 38 -26 72 -34 85 -45 71 -64 -11 -14 -11 -15 1 -4 20 17 43 15
71 -7 13 -10 42 -24 64 -31 22 -7 53 -21 70 -31 16 -11 37 -19 46 -19 8 0 33
-8 55 -19 48 -23 189 -61 264 -71 30 -5 78 -13 105 -20 153 -38 470 4 653 86
29 13 57 24 63 24 6 0 8 4 5 9 -6 9 -73 -7 -131 -33 -22 -9 -58 -21 -80 -26
-22 -5 -63 -16 -92 -24 -117 -33 -389 -29 -548 9 -93 22 -229 64 -283 87 -24
10 -62 26 -85 35 -39 16 -189 91 -247 124 -112 65 -140 82 -150 94 -7 8 -18
15 -24 15 -6 0 -23 10 -37 23 -14 12 -34 27 -45 33 -10 6 -20 19 -22 28 -3 14
7 16 66 16 73 0 102 6 102 21 0 10 -93 10 -130 0z"/>
<path d="M7275 3044 c-25 -19 -18 -35 13 -28 68 15 92 16 92 3 0 -8 -21 -54
-45 -104 -25 -49 -45 -97 -45 -106 0 -9 -7 -22 -15 -29 -8 -7 -13 -16 -10 -20
3 -5 1 -10 -3 -12 -11 -4 -72 -133 -72 -151 0 -8 -6 -20 -14 -26 -8 -7 -21
-32 -30 -56 -8 -24 -19 -50 -25 -57 -18 -21 -72 -131 -67 -135 10 -10 27 10
53 60 15 29 28 55 29 60 1 4 3 10 4 15 1 4 2 10 1 15 0 4 4 7 10 7 5 0 8 4 5
8 -3 5 4 16 15 25 10 9 19 26 19 37 0 22 27 81 41 90 5 3 10 15 12 27 1 12 8
28 15 35 6 8 10 17 7 20 -3 3 1 11 10 18 8 7 15 18 15 25 0 7 9 30 19 52 10
21 37 77 60 126 23 48 42 87 44 87 1 0 3 -12 4 -27 2 -35 19 -165 28 -218 4
-22 8 -69 10 -105 1 -36 4 -67 5 -70 15 -32 -70 -320 -112 -382 -10 -14 -18
-35 -18 -45 0 -10 -8 -30 -17 -43 -10 -14 -25 -38 -33 -55 -31 -59 -46 -81
-98 -145 -57 -71 -65 -80 -84 -96 -7 -6 -26 -27 -42 -48 -15 -20 -31 -36 -35
-36 -4 0 -32 -22 -61 -50 -29 -28 -59 -50 -66 -50 -6 0 -17 -7 -24 -15 -7 -8
-37 -27 -69 -42 -31 -15 -59 -32 -63 -38 -4 -5 -8 -6 -8 -2 0 4 -20 -4 -43
-18 -24 -14 -48 -25 -54 -25 -6 0 -35 -11 -64 -25 -47 -22 -50 -24 -19 -19 19
3 45 12 57 20 12 8 27 14 32 14 13 0 167 75 202 98 14 9 41 27 60 39 58 38 75
53 156 132 115 112 175 188 234 296 8 17 32 60 52 97 21 37 37 73 37 81 0 7 9
31 19 53 11 22 23 54 26 70 4 16 18 61 31 101 36 106 32 261 -10 453 -7 36
-13 66 -12 67 3 3 34 -27 52 -49 5 -7 14 -22 19 -33 8 -19 8 -19 13 -1 2 10
-5 31 -17 47 -12 15 -21 32 -21 36 0 4 -17 19 -38 33 -28 19 -50 25 -94 25
-31 0 -64 -5 -73 -11z"/>
<path d="M4976 2963 c-2 -3 -10 -6 -18 -7 -84 -17 -188 -87 -188 -127 0 -5 -4
-8 -9 -4 -5 3 -12 1 -15 -4 -4 -5 4 -13 16 -17 17 -5 27 0 45 22 13 16 28 28
33 27 5 -2 14 6 20 17 6 11 20 20 30 20 20 0 23 -19 24 -177 0 -13 3 -23 7
-23 6 0 19 -80 24 -155 7 -101 24 -203 35 -210 5 -3 11 -24 15 -47 4 -24 14
-53 22 -65 9 -13 11 -23 7 -23 -5 0 -2 -6 6 -13 8 -7 16 -21 18 -32 2 -11 16
-38 30 -60 15 -22 34 -52 42 -67 7 -16 17 -28 22 -28 4 0 8 -6 8 -12 0 -7 12
-24 25 -37 14 -13 24 -26 21 -28 -3 -3 15 -25 38 -49 24 -24 41 -45 39 -48 -2
-2 22 -26 54 -52 32 -27 61 -53 65 -59 4 -5 8 -6 8 -1 0 5 12 -3 26 -18 15
-14 32 -26 40 -26 7 0 14 -3 16 -7 8 -19 136 -94 163 -97 6 -1 21 -9 35 -18
14 -9 39 -18 55 -20 17 -2 41 -11 55 -20 14 -9 51 -21 83 -27 31 -6 65 -14 75
-20 9 -5 37 -12 62 -16 77 -12 33 13 -56 32 -43 9 -91 25 -105 34 -14 10 -38
21 -55 25 -16 4 -33 9 -39 13 -5 3 -18 7 -28 8 -10 2 -31 10 -46 18 -16 8 -31
11 -35 8 -3 -4 -6 -1 -6 5 0 7 -3 11 -7 10 -12 -3 -88 39 -102 56 -8 9 -20 16
-28 16 -8 0 -24 11 -36 24 -12 13 -31 25 -42 27 -11 2 -24 14 -30 26 -5 12
-20 28 -33 34 -25 14 -163 171 -173 198 -4 9 -14 22 -22 30 -9 7 -19 26 -22
42 -4 16 -11 29 -16 29 -6 0 -7 5 -4 10 3 6 2 10 -3 10 -5 0 -17 18 -27 40
-10 22 -21 40 -25 40 -4 0 -13 21 -20 48 -7 26 -21 65 -31 87 -16 36 -25 87
-34 200 -2 22 2 44 8 48 9 6 9 10 0 14 -7 2 -13 19 -13 37 0 18 -4 36 -9 41
-9 11 -24 275 -15 275 3 0 10 -5 17 -10 30 -26 65 -54 101 -83 21 -18 48 -42
59 -54 11 -13 29 -23 39 -23 10 0 18 -7 18 -15 0 -8 10 -19 22 -26 11 -6 35
-24 52 -40 17 -15 34 -28 39 -28 4 0 18 -12 32 -26 13 -15 26 -26 30 -25 4 1
22 -12 41 -29 18 -17 36 -31 40 -31 4 0 15 -9 25 -21 9 -11 19 -19 21 -18 2 2
12 -3 23 -9 19 -12 19 -13 2 -25 -35 -23 -60 -47 -55 -53 3 -3 13 2 22 11 9 9
16 13 16 10 0 -4 9 3 19 16 17 21 22 22 38 11 10 -7 30 -20 46 -30 15 -9 30
-25 33 -34 3 -10 8 -17 12 -16 14 3 62 -14 62 -22 0 -10 67 -50 85 -50 7 0 15
-3 17 -7 4 -9 49 -36 98 -59 19 -9 45 -25 58 -37 12 -11 22 -17 22 -13 0 5 6
3 14 -3 10 -9 16 -9 21 -1 4 7 -2 14 -14 17 -12 3 -21 9 -21 14 0 4 -18 14
-40 20 -22 7 -40 15 -40 19 0 4 -22 17 -50 30 -27 13 -50 27 -50 31 0 4 -11
10 -25 13 -14 4 -25 11 -25 16 0 6 -7 10 -15 10 -8 0 -15 5 -15 10 0 6 -7 10
-15 10 -8 0 -15 5 -15 11 0 5 -4 8 -8 5 -5 -3 -16 4 -25 15 -9 10 -23 19 -30
19 -7 0 -19 9 -27 20 -8 11 -20 20 -27 20 -7 0 -23 11 -37 25 -14 14 -29 25
-34 25 -5 0 -19 11 -32 25 -13 14 -25 23 -27 21 -3 -2 -17 6 -31 19 -15 13
-40 35 -56 49 -16 14 -32 26 -37 26 -4 0 -21 12 -38 28 -65 60 -81 72 -81 65
0 -4 -15 8 -33 27 -19 18 -38 34 -43 34 -5 1 -21 14 -36 30 -16 16 -28 26 -28
23 0 -3 -16 10 -35 29 -19 18 -35 38 -35 43 0 14 100 3 126 -14 13 -8 24 -13
24 -9 0 4 6 1 14 -5 10 -8 16 -9 21 -1 3 6 11 8 16 5 5 -4 9 1 9 9 0 10 -13
17 -37 21 -21 3 -49 9 -63 12 -14 4 -36 8 -50 9 -14 2 -37 5 -52 7 -15 2 -29
2 -32 0z"/>
<path d="M3000 2830 c0 -5 5 -10 11 -10 5 0 7 5 4 10 -3 6 -8 10 -11 10 -2 0
-4 -4 -4 -10z"/>
<path d="M865 2810 c3 -5 11 -10 16 -10 6 0 7 5 4 10 -3 6 -11 10 -16 10 -6 0
-7 -4 -4 -10z"/>
<path d="M2650 2792 c6 -13 14 -21 18 -18 3 4 -2 14 -12 24 -18 16 -18 16 -6
-6z"/>
<path d="M1465 2759 c-4 -6 -5 -12 -2 -15 2 -3 7 2 10 11 7 17 1 20 -8 4z"/>
<path d="M3195 2761 c-3 -5 -2 -12 3 -15 5 -3 9 1 9 9 0 17 -3 19 -12 6z"/>
<path d="M3140 2655 c-7 -9 -10 -18 -7 -21 3 -3 10 4 17 15 13 25 8 27 -10 6z"/>
<path d="M3095 2600 c-10 -11 -15 -20 -11 -20 11 0 39 30 34 36 -3 2 -13 -5
-23 -16z"/>
<path d="M826 2589 c6 -8 14 -27 18 -44 7 -28 33 -89 79 -180 29 -59 129 -208
150 -223 9 -7 17 -17 17 -22 0 -5 24 -31 52 -57 29 -26 65 -60 81 -75 16 -16
32 -28 36 -28 4 0 16 -9 27 -21 10 -12 35 -30 54 -40 19 -11 42 -23 50 -28 75
-45 223 -95 345 -117 141 -27 468 -27 610 -1 168 31 340 90 404 139 l24 18
-24 0 c-13 0 -42 -11 -64 -25 -22 -13 -53 -25 -70 -25 -16 0 -44 -9 -61 -19
-17 -10 -51 -23 -75 -29 -24 -6 -69 -18 -99 -27 -52 -15 -227 -25 -415 -24
-133 0 -265 17 -299 38 -17 10 -56 22 -86 26 -30 4 -66 13 -80 20 -92 45 -157
80 -170 91 -8 7 -25 22 -37 34 -13 11 -23 17 -23 13 0 -3 -9 2 -20 12 -11 10
-20 24 -20 30 0 7 -13 18 -30 25 -16 7 -30 15 -30 19 0 6 -22 32 -107 129 -13
14 -23 31 -23 38 0 8 -4 14 -9 14 -5 0 -19 20 -31 44 -12 25 -29 55 -38 68
-16 22 -27 43 -89 172 -15 33 -35 62 -43 64 -12 4 -13 2 -4 -9z"/>
<path d="M1000 2571 c0 -5 7 -12 16 -15 14 -5 15 -4 4 9 -14 17 -20 19 -20 6z"/>
<path d="M3055 2560 c-3 -5 -1 -10 4 -10 6 0 11 5 11 10 0 6 -2 10 -4 10 -3 0
-8 -4 -11 -10z"/>
<path d="M2985 2503 l-17 -28 23 22 c12 12 20 25 17 28 -3 3 -13 -7 -23 -22z"/>
<path d="M5060 2490 c0 -13 18 -22 24 -11 3 5 -1 11 -9 15 -8 3 -15 1 -15 -4z"/>
<path d="M2941 2450 c-13 -11 -19 -20 -14 -20 6 0 18 9 28 20 23 25 17 25 -14
0z"/>
<path d="M1159 2436 c27 -29 33 -32 25 -13 -2 7 -14 19 -27 26 -21 13 -21 12
2 -13z"/>
<path d="M5105 2400 c-3 -5 -1 -10 4 -10 6 0 11 5 11 10 0 6 -2 10 -4 10 -3 0
-8 -4 -11 -10z"/>
<path d="M2946 2377 c3 -10 9 -15 12 -12 3 3 0 11 -7 18 -10 9 -11 8 -5 -6z"/>
<path d="M2686 2363 c-6 -14 -5 -15 5 -6 7 7 10 15 7 18 -3 3 -9 -2 -12 -12z"/>
<path d="M1430 2365 c0 -14 63 -94 79 -100 10 -4 6 4 -10 22 -14 15 -35 41
-47 57 -12 16 -22 25 -22 21z"/>
<path d="M2839 2353 c-13 -15 -12 -15 9 -4 23 12 28 21 13 21 -5 0 -15 -7 -22
-17z"/>
<path d="M5130 2347 c0 -4 9 -21 20 -39 14 -23 19 -26 18 -12 -2 17 -38 67
-38 51z"/>
<path d="M1289 2321 c13 -12 28 -21 34 -21 12 0 11 0 -28 24 l-30 17 24 -20z"/>
<path d="M2660 2325 c-7 -9 -8 -15 -2 -15 5 0 12 7 16 15 3 8 4 15 2 15 -2 0
-9 -7 -16 -15z"/>
<path d="M2784 2324 c-18 -14 -18 -14 6 -3 31 14 36 19 24 19 -6 0 -19 -7 -30
-16z"/>
<path d="M1200 2319 c0 -5 5 -7 10 -4 6 3 10 8 10 11 0 2 -4 4 -10 4 -5 0 -10
-5 -10 -11z"/>
<path d="M7030 2295 c-11 -13 -10 -14 4 -9 9 3 16 10 16 15 0 13 -6 11 -20 -6z"/>
<path d="M1370 2280 c8 -5 20 -10 25 -10 6 0 3 5 -5 10 -8 5 -19 10 -25 10 -5
0 -3 -5 5 -10z"/>
<path d="M6960 2233 c-25 -24 -71 -64 -102 -89 -65 -50 -80 -72 -20 -27 54 39
177 152 171 156 -2 2 -24 -16 -49 -40z"/>
<path d="M7269 2263 c-13 -16 -12 -17 4 -4 16 13 21 21 13 21 -2 0 -10 -8 -17
-17z"/>
<path d="M1547 2239 c7 -7 15 -10 18 -7 3 3 -2 9 -12 12 -14 6 -15 5 -6 -5z"/>
<path d="M5205 2240 c3 -5 8 -10 11 -10 2 0 4 5 4 10 0 6 -5 10 -11 10 -5 0
-7 -4 -4 -10z"/>
<path d="M2555 2231 c-3 -5 -1 -12 4 -15 5 -3 11 1 15 9 6 16 -9 21 -19 6z"/>
<path d="M5230 2220 c0 -5 5 -10 11 -10 5 0 7 5 4 10 -3 6 -8 10 -11 10 -2 0
-4 -4 -4 -10z"/>
<path d="M5851 2204 c0 -11 3 -14 6 -6 3 7 2 16 -1 19 -3 4 -6 -2 -5 -13z"/>
<path d="M1600 2190 c0 -5 5 -10 10 -10 6 0 10 5 10 10 0 6 -4 10 -10 10 -5 0
-10 -4 -10 -10z"/>
<path d="M6040 2182 c0 -11 16 -34 23 -33 4 0 21 -6 39 -14 18 -7 37 -11 41
-8 11 6 3 14 -17 17 -8 1 -23 9 -33 17 -21 19 -53 31 -53 21z"/>
<path d="M7176 2143 c-6 -14 -5 -15 5 -6 7 7 10 15 7 18 -3 3 -9 -2 -12 -12z"/>
<path d="M6155 2120 c-6 -9 8 -14 28 -11 4 0 7 -3 7 -9 0 -5 11 -10 24 -10 13
0 27 -7 30 -16 3 -8 11 -12 16 -9 6 4 22 0 35 -9 32 -21 52 -21 35 -1 -7 8
-16 12 -21 9 -5 -3 -12 1 -15 10 -3 8 -13 14 -22 14 -9 -1 -37 8 -61 20 -52
26 -48 25 -56 12z"/>
<path d="M5390 2084 c0 -6 15 -23 33 -40 l32 -29 -30 35 c-16 19 -31 37 -32
39 -2 2 -3 0 -3 -5z"/>
<path d="M6756 2065 c-15 -14 -23 -25 -18 -25 5 0 19 11 32 25 13 14 21 25 18
25 -3 0 -17 -11 -32 -25z"/>
<path d="M6350 2040 c0 -7 99 -50 118 -50 6 0 12 5 12 11 0 6 -6 9 -12 6 -7
-2 -24 4 -38 13 -26 18 -80 32 -80 20z"/>
<path d="M6683 2014 l-28 -26 33 22 c29 20 39 30 28 30 -3 0 -18 -12 -33 -26z"/>
<path d="M6501 1984 c6 -8 14 -12 17 -9 3 3 14 -2 24 -12 10 -9 18 -13 18 -8
0 4 6 2 14 -4 11 -9 20 -6 42 14 23 21 24 23 5 12 -18 -12 -30 -13 -50 -5 -14
5 -39 14 -54 19 -25 7 -27 6 -16 -7z"/>
<path d="M2831 1975 c-1 -6 -11 -15 -23 -20 -26 -12 -36 -35 -15 -35 19 0 50
36 44 52 -3 7 -6 8 -6 3z"/>
<path d="M5560 1936 c0 -2 7 -7 16 -10 8 -3 12 -2 9 4 -6 10 -25 14 -25 6z"/>
<path d="M5720 1927 c0 -15 27 -43 34 -36 3 2 -4 15 -15 28 -13 16 -19 18 -19
8z"/>
<path d="M5760 1871 c0 -5 7 -12 16 -15 14 -5 15 -4 4 9 -14 17 -20 19 -20 6z"/>
<path d="M5820 1826 c0 -2 7 -9 15 -16 9 -7 15 -8 15 -2 0 5 -7 12 -15 16 -8
3 -15 4 -15 2z"/>
<path d="M5876 1781 c-7 -11 22 -23 36 -15 6 4 5 10 -3 15 -18 11 -26 11 -33
0z"/>
<path d="M6433 1457 c-54 -16 -69 -32 -21 -23 47 9 112 35 83 35 -11 -1 -39
-6 -62 -12z"/>
<path d="M6080 1429 c14 -6 36 -13 50 -15 14 -1 36 -5 50 -9 41 -10 92 -7 140
9 l45 15 -50 -4 c-27 -3 -57 -6 -65 -6 -15 -2 -104 7 -165 17 -30 4 -30 4 -5
-7z"/>
<path d="M1590 390 c0 -5 7 -10 15 -10 8 0 15 5 15 10 0 6 -7 10 -15 10 -8 0
-15 -4 -15 -10z"/>
<path d="M2710 390 c0 -5 7 -10 15 -10 8 0 15 5 15 10 0 6 -7 10 -15 10 -8 0
-15 -4 -15 -10z"/>
<path d="M3530 385 c0 -8 -6 -15 -14 -15 -21 0 -38 -27 -31 -50 4 -14 15 -20
36 -20 28 0 29 1 29 50 0 28 -4 50 -10 50 -5 0 -10 -7 -10 -15z m0 -50 c0 -14
-4 -25 -10 -25 -5 0 -10 11 -10 25 0 14 5 25 10 25 6 0 10 -11 10 -25z"/>
<path d="M3620 390 c0 -5 7 -10 15 -10 8 0 15 5 15 10 0 6 -7 10 -15 10 -8 0
-15 -4 -15 -10z"/>
<path d="M258 345 c-15 -38 -15 -45 -3 -45 8 0 15 5 15 10 0 6 9 10 20 10 11
0 20 -4 20 -10 0 -5 7 -10 16 -10 11 0 14 5 9 18 -4 9 -12 29 -17 45 -15 42
-41 34 -60 -18z m42 0 c0 -8 -4 -15 -10 -15 -5 0 -10 7 -10 15 0 8 5 15 10 15
6 0 10 -7 10 -15z"/>
<path d="M432 348 c3 -38 6 -43 28 -45 14 -1 19 0 13 3 -16 7 -17 54 -2 54 6
0 4 7 -5 15 -26 27 -37 18 -34 -27z"/>
<path d="M910 346 c0 -25 5 -46 10 -46 6 0 10 6 10 13 0 7 10 17 23 22 12 6
22 19 22 30 0 15 -8 21 -32 23 -33 3 -33 3 -33 -42z m40 14 c0 -11 -4 -20 -10
-20 -5 0 -10 9 -10 20 0 11 5 20 10 20 6 0 10 -9 10 -20z"/>
<path d="M990 345 c0 -25 5 -45 10 -45 6 0 10 10 10 23 l1 22 18 -22 c27 -32
48 -30 27 1 -11 17 -12 26 -4 28 24 8 -1 38 -32 38 -29 0 -30 -2 -30 -45z m42
20 c0 -5 -5 -11 -11 -13 -6 -2 -11 4 -11 13 0 9 5 15 11 13 6 -2 11 -8 11 -13z"/>
<path d="M1080 345 c0 -43 1 -45 28 -44 16 1 20 3 10 6 -10 2 -18 11 -18 18 0
7 8 16 18 18 16 4 16 5 0 6 -10 0 -18 7 -18 15 0 8 8 17 18 19 10 3 6 5 -10 6
-27 1 -28 -1 -28 -44z"/>
<path d="M1157 345 c8 -25 21 -45 28 -45 7 0 20 18 29 40 19 47 19 50 6 50 -5
0 -16 -15 -24 -32 l-14 -33 -7 33 c-4 17 -13 32 -21 32 -10 0 -10 -9 3 -45z"/>
<path d="M1239 369 c-16 -31 3 -69 36 -69 17 0 29 8 36 24 15 32 -4 66 -36 66
-15 0 -29 -9 -36 -21z m51 -25 c0 -24 -4 -34 -12 -32 -24 8 -22 68 2 68 5 0
10 -16 10 -36z"/>
<path d="M1336 382 c-13 -13 -5 -40 14 -45 22 -6 28 -27 7 -27 -7 0 -19 6 -26
13 -11 10 -13 9 -9 -3 6 -19 45 -25 64 -10 20 18 17 29 -11 42 -36 16 -31 25
15 25 40 0 40 0 40 -38 0 -22 5 -39 10 -39 6 0 10 18 10 39 0 29 5 41 18 44 9
2 -15 5 -55 5 -39 0 -74 -2 -77 -6z"/>
<path d="M1520 346 c0 -25 5 -46 10 -46 6 0 10 6 10 13 0 7 10 17 23 22 12 6
22 19 22 30 0 15 -8 21 -32 23 -33 3 -33 3 -33 -42z m40 14 c0 -11 -4 -20 -10
-20 -5 0 -10 9 -10 20 0 11 5 20 10 20 6 0 10 -9 10 -20z"/>
<path d="M1990 345 c0 -43 1 -45 30 -45 22 0 33 6 41 24 16 35 -3 66 -41 66
-29 0 -30 -2 -30 -45z m45 0 c0 -16 -6 -30 -12 -32 -9 -3 -13 7 -13 32 0 25 4
35 13 33 6 -3 12 -17 12 -33z"/>
<path d="M2080 345 c0 -43 1 -45 28 -44 16 1 20 3 10 6 -10 2 -18 11 -18 18 0
7 8 16 18 18 16 4 16 5 0 6 -10 0 -18 7 -18 15 0 8 8 17 18 19 10 3 6 5 -10 6
-27 1 -28 -1 -28 -44z"/>
<path d="M2150 345 c0 -43 1 -45 30 -45 22 0 33 6 41 24 16 35 -3 66 -41 66
-29 0 -30 -2 -30 -45z m45 0 c0 -16 -6 -30 -12 -32 -9 -3 -13 7 -13 32 0 25 4
35 13 33 6 -3 12 -17 12 -33z"/>
<path d="M2240 345 c0 -25 5 -45 10 -45 6 0 10 10 10 23 l1 22 18 -22 c17 -20
28 -23 88 -22 37 1 60 3 51 6 -10 2 -18 11 -18 18 0 7 8 16 18 18 16 4 16 5 0
6 -10 0 -18 7 -18 15 0 8 8 17 18 19 9 3 -10 5 -43 5 -33 0 -54 -2 -47 -5 16
-6 16 -73 -1 -73 -18 0 -40 37 -25 42 24 8 -1 38 -32 38 -29 0 -30 -2 -30 -45z
m42 20 c0 -5 -5 -11 -11 -13 -6 -2 -11 4 -11 13 0 9 5 15 11 13 6 -2 11 -8 11
-13z m98 -20 c0 -19 -4 -35 -10 -35 -5 0 -10 16 -10 35 0 19 5 35 10 35 6 0
10 -16 10 -35z"/>
<path d="M2490 345 c0 -44 0 -45 33 -44 23 1 26 3 10 6 -19 4 -23 11 -23 44 0
21 -4 39 -10 39 -5 0 -10 -20 -10 -45z"/>
<path d="M2900 345 c0 -43 1 -45 30 -45 22 0 33 6 41 24 16 35 -3 66 -41 66
-29 0 -30 -2 -30 -45z m45 0 c0 -16 -6 -30 -12 -32 -9 -3 -13 7 -13 32 0 25 4
35 13 33 6 -3 12 -17 12 -33z"/>
<path d="M2990 350 c0 -70 62 -67 68 4 2 27 -1 36 -12 36 -12 0 -16 -10 -16
-40 0 -22 -4 -40 -10 -40 -5 0 -10 18 -10 40 0 22 -4 40 -10 40 -5 0 -10 -18
-10 -40z"/>
<path d="M3070 345 c0 -25 5 -45 10 -45 6 0 10 10 10 23 l1 22 18 -22 c17 -20
28 -23 88 -22 37 1 60 3 51 6 -10 2 -18 11 -18 18 0 7 8 16 18 18 16 4 16 5 0
6 -10 0 -18 7 -18 15 0 8 8 17 18 19 9 3 -10 5 -43 5 -33 0 -54 -2 -47 -5 16
-6 16 -73 -1 -73 -18 0 -40 37 -25 42 24 8 -1 38 -32 38 -29 0 -30 -2 -30 -45z
m42 20 c0 -5 -5 -11 -11 -13 -6 -2 -11 4 -11 13 0 9 5 15 11 13 6 -2 11 -8 11
-13z m98 -20 c0 -19 -4 -35 -10 -35 -5 0 -10 16 -10 35 0 19 5 35 10 35 6 0
10 -16 10 -35z"/>
<path d="M3292 383 c17 -4 16 -7 -2 -44 l-20 -39 37 1 c23 1 29 3 16 6 l-23 4
20 40 20 39 -32 -1 c-18 -1 -25 -3 -16 -6z"/>
<path d="M3398 345 c-15 -38 -15 -45 -3 -45 8 0 15 5 15 10 0 6 9 10 20 10 11
0 20 -4 20 -10 0 -5 7 -10 16 -10 11 0 14 5 9 18 -4 9 -12 29 -17 45 -15 42
-41 34 -60 -18z m42 0 c0 -8 -4 -15 -10 -15 -5 0 -10 7 -10 15 0 8 5 15 10 15
6 0 10 -7 10 -15z"/>
<path d="M352 338 c2 -28 8 -34 31 -36 25 -3 27 -1 27 32 0 20 -4 36 -10 36
-5 0 -10 -13 -10 -30 0 -16 -4 -30 -10 -30 -5 0 -10 14 -10 30 0 17 -5 30 -11
30 -6 0 -9 -14 -7 -32z"/>
<path d="M491 352 c-14 -27 5 -52 39 -52 17 0 30 4 30 9 0 4 -11 6 -25 3 -15
-2 -25 0 -25 7 0 6 11 11 25 11 27 0 32 9 13 28 -18 18 -46 15 -57 -6z m44 -2
c3 -5 -1 -10 -9 -10 -9 0 -16 5 -16 10 0 6 4 10 9 10 6 0 13 -4 16 -10z"/>
<path d="M572 338 c2 -28 8 -34 31 -36 25 -3 27 -1 27 32 0 20 -4 36 -10 36
-5 0 -10 -13 -10 -30 0 -16 -4 -30 -10 -30 -5 0 -10 14 -10 30 0 17 -5 30 -11
30 -6 0 -9 -14 -7 -32z"/>
<path d="M650 334 c0 -19 5 -34 10 -34 6 0 10 9 10 20 0 11 7 23 15 26 23 9
18 22 -10 22 -22 0 -25 -5 -25 -34z"/>
<path d="M717 363 c-13 -12 -7 -33 8 -33 8 0 15 -5 15 -11 0 -6 -7 -9 -15 -5
-8 3 -15 1 -15 -5 0 -15 53 -7 58 9 2 7 -5 16 -17 19 -12 3 -21 10 -21 15 0 6
9 8 20 5 11 -3 20 -1 20 4 0 10 -43 12 -53 2z"/>
<path d="M820 360 c0 -5 7 -10 15 -10 8 0 15 5 15 10 0 6 -7 10 -15 10 -8 0
-15 -4 -15 -10z"/>
<path d="M1600 335 c0 -19 5 -35 10 -35 6 0 10 8 10 18 1 16 1 16 11 0 10 -18
69 -26 69 -9 0 4 -11 6 -25 3 -15 -2 -25 0 -25 7 0 6 11 11 25 11 27 0 32 9
13 28 -17 17 -45 15 -57 -5 -10 -17 -10 -17 -11 0 0 9 -4 17 -10 17 -5 0 -10
-16 -10 -35z m75 15 c3 -5 -1 -10 -9 -10 -9 0 -16 5 -16 10 0 6 4 10 9 10 6 0
13 -4 16 -10z"/>
<path d="M1710 334 c0 -19 5 -34 10 -34 6 0 10 9 10 20 0 11 7 23 15 26 23 9
18 22 -10 22 -22 0 -25 -5 -25 -34z"/>
<path d="M1770 334 c0 -19 5 -34 10 -34 6 0 10 9 10 20 0 11 7 23 15 26 23 9
18 22 -10 22 -22 0 -25 -5 -25 -34z"/>
<path d="M1831 352 c-14 -27 5 -52 39 -52 17 0 30 4 30 9 0 4 -11 6 -25 3 -15
-2 -25 0 -25 7 0 6 11 11 25 11 27 0 32 9 13 28 -18 18 -46 15 -57 -6z m44 -2
c3 -5 -1 -10 -9 -10 -9 0 -16 5 -16 10 0 6 4 10 9 10 6 0 13 -4 16 -10z"/>
<path d="M2561 356 c-16 -19 2 -56 28 -56 28 0 47 28 34 48 -13 22 -47 27 -62
8z m39 -21 c0 -14 -4 -25 -10 -25 -5 0 -10 11 -10 25 0 14 5 25 10 25 6 0 10
-11 10 -25z"/>
<path d="M2642 338 c2 -28 8 -34 31 -36 25 -3 27 -1 27 32 0 20 -4 36 -10 36
-5 0 -10 -13 -10 -30 0 -16 -4 -30 -10 -30 -5 0 -10 14 -10 30 0 17 -5 30 -11
30 -6 0 -9 -14 -7 -32z"/>
<path d="M2720 335 c0 -19 5 -35 10 -35 6 0 10 16 10 35 0 19 -4 35 -10 35 -5
0 -10 -16 -10 -35z"/>
<path d="M2757 363 c-13 -12 -7 -33 8 -33 8 0 15 -5 15 -11 0 -6 -7 -9 -15 -5
-8 3 -15 1 -15 -5 0 -15 53 -7 58 9 2 7 -5 16 -17 19 -12 3 -21 10 -21 15 0 6
9 8 20 5 11 -3 20 -1 20 4 0 10 -43 12 -53 2z"/>
<path d="M3570 334 c0 -19 5 -34 10 -34 6 0 10 9 10 20 0 11 7 23 15 26 23 9
18 22 -10 22 -22 0 -25 -5 -25 -34z"/>
<path d="M3630 335 c0 -19 5 -35 10 -35 6 0 10 8 10 18 1 16 1 16 11 0 10 -18
69 -26 69 -9 0 4 -11 6 -25 3 -15 -2 -25 0 -25 7 0 6 11 11 25 11 27 0 32 9
13 28 -17 17 -45 15 -57 -5 -10 -17 -10 -17 -11 0 0 9 -4 17 -10 17 -5 0 -10
-16 -10 -35z m75 15 c3 -5 -1 -10 -9 -10 -9 0 -16 5 -16 10 0 6 4 10 9 10 6 0
13 -4 16 -10z"/>
<path d="M3740 335 c0 -19 5 -35 10 -35 6 0 10 14 10 30 0 17 5 30 10 30 6 0
10 -13 10 -30 0 -16 5 -30 10 -30 6 0 10 16 10 35 0 32 -2 35 -30 35 -28 0
-30 -3 -30 -35z"/>
<path d="M820 310 c0 -5 7 -10 15 -10 8 0 15 5 15 10 0 6 -7 10 -15 10 -8 0
-15 -4 -15 -10z"/>
<path d="M1906 304 c-9 -22 3 -32 14 -14 12 19 12 30 1 30 -5 0 -12 -7 -15
-16z"/>
<path d="M2816 304 c-9 -22 3 -32 14 -14 12 19 12 30 1 30 -5 0 -12 -7 -15
-16z"/>
</g>
</svg>
