<?xml version="1.0" standalone="no"?>
<!DOCTYPE svg PUBLIC "-//W3C//DTD SVG 20010904//EN"
 "http://www.w3.org/TR/2001/REC-SVG-20010904/DTD/svg10.dtd">
<svg version="1.0" xmlns="http://www.w3.org/2000/svg"
 width="1611.000000pt" height="989.000000pt" viewBox="0 0 1611.000000 989.000000"
 preserveAspectRatio="xMidYMid meet">

<g transform="translate(0.000000,989.000000) scale(0.100000,-0.100000)"
fill="#000000" stroke="none">
<path d="M5 9255 c0 -352 1 -495 2 -317 2 178 2 466 0 640 -1 174 -2 29 -2
-323z"/>
<path d="M16080 4945 c0 -4389 2 -4945 15 -4945 13 0 15 545 15 4844 0 3866
-3 4846 -12 4850 -10 5 -10 7 0 12 8 4 12 33 12 95 0 72 -3 89 -15 89 -13 0
-15 -556 -15 -4945z"/>
<path d="M103 9685 c0 -22 2 -30 4 -17 2 12 2 30 0 40 -3 9 -5 -1 -4 -23z"/>
<path d="M293 9685 c0 -22 2 -30 4 -17 2 12 2 30 0 40 -3 9 -5 -1 -4 -23z"/>
<path d="M157 9633 c24 -2 62 -2 85 0 24 2 5 4 -42 4 -47 0 -66 -2 -43 -4z"/>
<path d="M9385 4850 c0 -2373 1 -3344 2 -2157 2 1186 2 3128 0 4315 -1 1186
-2 215 -2 -2158z"/>
<path d="M12460 8940 c0 -103 1 -110 20 -110 17 0 20 7 20 45 0 45 0 45 35 45
70 0 107 37 90 90 -9 27 -43 40 -111 40 l-54 0 0 -110z m121 64 c20 -24 -1
-48 -45 -52 -35 -3 -36 -2 -36 32 0 34 2 36 34 36 18 0 39 -7 47 -16z"/>
<path d="M12670 9030 c0 -11 7 -20 15 -20 8 0 15 9 15 20 0 11 -7 20 -15 20
-8 0 -15 -9 -15 -20z"/>
<path d="M12670 8905 c0 -60 3 -75 15 -75 12 0 15 15 15 75 0 60 -3 75 -15 75
-12 0 -15 -15 -15 -75z"/>
<path d="M12772 8960 c-49 -46 -16 -130 51 -130 43 0 77 23 60 41 -10 10 -16
10 -25 1 -16 -16 -53 -15 -68 2 -10 13 -3 15 47 18 55 3 58 4 55 28 -5 55 -78
79 -120 40z m86 -27 c2 -9 -9 -13 -38 -13 -37 0 -41 2 -30 16 15 17 61 15 68
-3z"/>
<path d="M12940 8905 c0 -60 3 -75 15 -75 11 0 15 11 15 36 0 42 15 74 35 74
8 0 15 9 15 20 0 24 -8 25 -32 3 -17 -15 -18 -15 -18 0 0 10 -7 17 -15 17 -12
0 -15 -15 -15 -75z"/>
<path d="M13060 8905 c0 -60 3 -75 15 -75 11 0 15 11 15 36 0 42 15 74 35 74
8 0 15 9 15 20 0 24 -8 25 -32 3 -17 -15 -18 -15 -18 0 0 10 -7 17 -15 17 -12
0 -15 -15 -15 -75z"/>
<path d="M13192 8960 c-49 -46 -16 -130 51 -130 43 0 77 23 60 41 -10 10 -16
10 -25 1 -16 -16 -53 -15 -68 2 -10 13 -3 15 47 18 55 3 58 4 55 28 -5 55 -78
79 -120 40z m86 -27 c2 -9 -9 -13 -38 -13 -37 0 -41 2 -30 16 15 17 61 15 68
-3z"/>
<path d="M570 4885 l0 -4085 4085 0 4085 0 0 4085 0 4085 -4085 0 -4085 0 0
-4085z m450 3825 l0 -190 -190 0 -190 0 0 190 0 190 190 0 190 0 0 -190z m450
0 l0 -190 -190 0 -190 0 0 190 0 190 190 0 190 0 0 -190z m450 0 l0 -190 -190
0 -190 0 0 190 0 190 190 0 190 0 0 -190z m450 0 l0 -190 -190 0 -190 0 0 190
0 190 190 0 190 0 0 -190z m450 0 l0 -190 -190 0 -190 0 0 190 0 190 190 0
190 0 0 -190z m450 0 l0 -190 -190 0 -190 0 0 190 0 190 190 0 190 0 0 -190z
m450 0 l0 -190 -190 0 -190 0 0 190 0 190 190 0 190 0 0 -190z m450 0 l0 -190
-190 0 -190 0 0 190 0 190 190 0 190 0 0 -190z m450 0 l0 -190 -190 0 -190 0
0 190 0 190 190 0 190 0 0 -190z m450 0 l0 -190 -190 0 -190 0 0 190 0 190
190 0 190 0 0 -190z m450 0 l0 -190 -190 0 -190 0 0 190 0 190 190 0 190 0 0
-190z m450 0 l0 -190 -190 0 -190 0 0 190 0 190 190 0 190 0 0 -190z m450 0
l0 -190 -190 0 -190 0 0 190 0 190 190 0 190 0 0 -190z m450 0 l0 -190 -190 0
-190 0 0 190 0 190 190 0 190 0 0 -190z m450 0 l0 -190 -190 0 -190 0 0 190 0
190 190 0 190 0 0 -190z m450 0 l0 -190 -190 0 -190 0 0 190 0 190 190 0 190
0 0 -190z m450 0 l0 -190 -190 0 -190 0 0 190 0 190 190 0 190 0 0 -190z m450
0 l0 -190 -190 0 -190 0 0 190 0 190 190 0 190 0 0 -190z m-7650 -450 l0 -190
-190 0 -190 0 0 190 0 190 190 0 190 0 0 -190z m450 0 l0 -190 -190 0 -190 0
0 190 0 190 190 0 190 0 0 -190z m450 0 l0 -190 -190 0 -190 0 0 190 0 190
190 0 190 0 0 -190z m450 0 l0 -190 -190 0 -190 0 0 190 0 190 190 0 190 0 0
-190z m450 0 l0 -190 -190 0 -190 0 0 190 0 190 190 0 190 0 0 -190z m450 0
l0 -190 -190 0 -190 0 0 190 0 190 190 0 190 0 0 -190z m450 0 l0 -190 -190 0
-190 0 0 190 0 190 190 0 190 0 0 -190z m450 0 l0 -190 -190 0 -190 0 0 190 0
190 190 0 190 0 0 -190z m450 0 l0 -190 -190 0 -190 0 0 190 0 190 190 0 190
0 0 -190z m450 0 l0 -190 -190 0 -190 0 0 190 0 190 190 0 190 0 0 -190z m450
0 l0 -190 -190 0 -190 0 0 190 0 190 190 0 190 0 0 -190z m450 0 l0 -190 -190
0 -190 0 0 190 0 190 190 0 190 0 0 -190z m450 0 l0 -190 -190 0 -190 0 0 190
0 190 190 0 190 0 0 -190z m450 0 l0 -190 -190 0 -190 0 0 190 0 190 190 0
190 0 0 -190z m450 0 l0 -190 -190 0 -190 0 0 190 0 190 190 0 190 0 0 -190z
m450 0 l0 -190 -190 0 -190 0 0 190 0 190 190 0 190 0 0 -190z m450 0 l0 -190
-190 0 -190 0 0 190 0 190 190 0 190 0 0 -190z m450 0 l0 -190 -190 0 -190 0
0 190 0 190 190 0 190 0 0 -190z m-7650 -450 l0 -190 -190 0 -190 0 0 190 0
190 190 0 190 0 0 -190z m450 0 l0 -190 -190 0 -190 0 0 190 0 190 190 0 190
0 0 -190z m450 0 l0 -190 -190 0 -190 0 0 190 0 190 190 0 190 0 0 -190z m450
0 l0 -190 -190 0 -190 0 0 190 0 190 190 0 190 0 0 -190z m450 0 l0 -190 -190
0 -190 0 0 190 0 190 190 0 190 0 0 -190z m450 0 l0 -190 -190 0 -190 0 0 190
0 190 190 0 190 0 0 -190z m450 0 l0 -190 -190 0 -190 0 0 190 0 190 190 0
190 0 0 -190z m450 0 l0 -190 -190 0 -190 0 0 190 0 190 190 0 190 0 0 -190z
m450 0 l0 -190 -190 0 -190 0 0 190 0 190 190 0 190 0 0 -190z m450 0 l0 -190
-190 0 -190 0 0 190 0 190 190 0 190 0 0 -190z m450 0 l0 -190 -190 0 -190 0
0 190 0 190 190 0 190 0 0 -190z m450 0 l0 -190 -190 0 -190 0 0 190 0 190
190 0 190 0 0 -190z m450 0 l0 -190 -190 0 -190 0 0 190 0 190 190 0 190 0 0
-190z m450 0 l0 -190 -190 0 -190 0 0 190 0 190 190 0 190 0 0 -190z m450 0
l0 -190 -190 0 -190 0 0 190 0 190 190 0 190 0 0 -190z m450 0 l0 -190 -190 0
-190 0 0 190 0 190 190 0 190 0 0 -190z m450 0 l0 -190 -190 0 -190 0 0 190 0
190 190 0 190 0 0 -190z m450 0 l0 -190 -190 0 -190 0 0 190 0 190 190 0 190
0 0 -190z m-7650 -450 l0 -190 -190 0 -190 0 0 190 0 190 190 0 190 0 0 -190z
m450 0 l0 -190 -190 0 -190 0 0 190 0 190 190 0 190 0 0 -190z m450 0 l0 -190
-190 0 -190 0 0 190 0 190 190 0 190 0 0 -190z m450 0 l0 -190 -190 0 -190 0
0 190 0 190 190 0 190 0 0 -190z m450 0 l0 -190 -190 0 -190 0 0 190 0 190
190 0 190 0 0 -190z m450 0 l0 -190 -190 0 -190 0 0 190 0 190 190 0 190 0 0
-190z m450 0 l0 -190 -190 0 -190 0 0 190 0 190 190 0 190 0 0 -190z m450 0
l0 -190 -190 0 -190 0 0 190 0 190 190 0 190 0 0 -190z m450 0 l0 -190 -190 0
-190 0 0 190 0 190 190 0 190 0 0 -190z m450 0 l0 -190 -190 0 -190 0 0 190 0
190 190 0 190 0 0 -190z m450 0 l0 -190 -190 0 -190 0 0 190 0 190 190 0 190
0 0 -190z m450 0 l0 -190 -190 0 -190 0 0 190 0 190 190 0 190 0 0 -190z m450
0 l0 -190 -190 0 -190 0 0 190 0 190 190 0 190 0 0 -190z m450 0 l0 -190 -190
0 -190 0 0 190 0 190 190 0 190 0 0 -190z m450 0 l0 -190 -190 0 -190 0 0 190
0 190 190 0 190 0 0 -190z m450 0 l0 -190 -190 0 -190 0 0 190 0 190 190 0
190 0 0 -190z m450 0 l0 -190 -190 0 -190 0 0 190 0 190 190 0 190 0 0 -190z
m450 0 l0 -190 -190 0 -190 0 0 190 0 190 190 0 190 0 0 -190z m-7650 -450 l0
-190 -190 0 -190 0 0 190 0 190 190 0 190 0 0 -190z m450 0 l0 -190 -190 0
-190 0 0 190 0 190 190 0 190 0 0 -190z m450 0 l0 -190 -190 0 -190 0 0 190 0
190 190 0 190 0 0 -190z m450 0 l0 -190 -190 0 -190 0 0 190 0 190 190 0 190
0 0 -190z m450 0 l0 -190 -190 0 -190 0 0 190 0 190 190 0 190 0 0 -190z m450
0 l0 -190 -190 0 -190 0 0 190 0 190 190 0 190 0 0 -190z m450 0 l0 -190 -190
0 -190 0 0 190 0 190 190 0 190 0 0 -190z m450 0 l0 -190 -190 0 -190 0 0 190
0 190 190 0 190 0 0 -190z m450 0 l0 -190 -190 0 -190 0 0 190 0 190 190 0
190 0 0 -190z m450 0 l0 -190 -190 0 -190 0 0 190 0 190 190 0 190 0 0 -190z
m450 0 l0 -190 -190 0 -190 0 0 190 0 190 190 0 190 0 0 -190z m450 0 l0 -190
-190 0 -190 0 0 190 0 190 190 0 190 0 0 -190z m450 0 l0 -190 -190 0 -190 0
0 190 0 190 190 0 190 0 0 -190z m450 0 l0 -190 -190 0 -190 0 0 190 0 190
190 0 190 0 0 -190z m450 0 l0 -190 -190 0 -190 0 0 190 0 190 190 0 190 0 0
-190z m450 0 l0 -190 -190 0 -190 0 0 190 0 190 190 0 190 0 0 -190z m450 0
l0 -190 -190 0 -190 0 0 190 0 190 190 0 190 0 0 -190z m450 0 l0 -190 -190 0
-190 0 0 190 0 190 190 0 190 0 0 -190z m-7650 -450 l0 -190 -190 0 -190 0 0
190 0 190 190 0 190 0 0 -190z m450 93 c-2 -128 -3 -121 18 -126 16 -4 16 -5
-1 -6 -10 0 -20 6 -23 14 -4 8 -15 15 -26 15 -15 0 -18 -5 -13 -22 4 -16 3
-19 -3 -9 -20 29 -105 -46 -118 -104 -4 -16 -12 -33 -18 -37 -6 -4 -53 -8
-103 -8 l-93 0 0 190 0 190 191 0 190 0 -1 -97z m450 -93 l0 -190 -95 0 -94 0
-12 40 c-7 22 -16 40 -21 40 -5 0 -13 11 -18 24 -5 14 -25 32 -44 41 -20 10
-36 21 -36 26 0 11 -37 12 -43 2 -2 -5 -2 -2 -1 5 2 6 -1 12 -6 12 -6 0 -10
40 -10 95 l0 95 190 0 190 0 0 -190z m450 0 l0 -190 -190 0 -190 0 0 190 0
190 190 0 190 0 0 -190z m450 0 l0 -190 -190 0 -190 0 0 190 0 190 190 0 190
0 0 -190z m450 0 l0 -190 -190 0 -190 0 0 190 0 190 190 0 190 0 0 -190z m450
0 l0 -190 -190 0 -190 0 0 190 0 190 190 0 190 0 0 -190z m450 0 l0 -190 -190
0 -190 0 0 190 0 190 190 0 190 0 0 -190z m450 0 l0 -190 -190 0 -190 0 0 190
0 190 190 0 190 0 0 -190z m450 0 l0 -190 -190 0 -190 0 0 190 0 190 190 0
190 0 0 -190z m450 0 l0 -190 -190 0 -190 0 0 190 0 190 190 0 190 0 0 -190z
m450 0 l0 -190 -190 0 -190 0 0 190 0 190 190 0 190 0 0 -190z m450 0 l0 -190
-190 0 -190 0 0 190 0 190 190 0 190 0 0 -190z m450 0 l0 -190 -190 0 -190 0
0 190 0 190 190 0 190 0 0 -190z m450 93 c-2 -128 -3 -121 18 -126 16 -4 16
-5 -1 -6 -10 0 -20 6 -23 14 -4 8 -15 15 -26 15 -15 0 -18 -5 -13 -22 4 -16 3
-19 -3 -9 -20 29 -105 -46 -118 -104 -4 -16 -12 -33 -18 -37 -6 -4 -53 -8
-103 -8 l-93 0 0 190 0 190 191 0 190 0 -1 -97z m450 -93 l0 -190 -95 0 -94 0
-12 40 c-7 22 -16 40 -21 40 -5 0 -13 11 -18 24 -5 14 -25 32 -44 41 -20 10
-36 21 -36 26 0 11 -37 12 -43 2 -2 -5 -2 -2 -1 5 2 6 -1 12 -6 12 -6 0 -10
40 -10 95 l0 95 190 0 190 0 0 -190z m450 0 l0 -190 -190 0 -190 0 0 190 0
190 190 0 190 0 0 -190z m450 0 l0 -190 -190 0 -190 0 0 190 0 190 190 0 190
0 0 -190z m-7044 -49 c40 -22 66 -61 54 -81 -7 -11 -12 -10 -24 3 -12 11 -13
17 -3 20 6 3 3 6 -8 6 -17 1 -17 3 -5 11 13 8 12 10 -2 10 -10 0 -18 7 -18 16
0 11 -6 14 -20 9 -14 -5 -20 -2 -20 9 0 20 3 20 46 -3z m5850 0 c40 -22 66
-61 54 -81 -7 -11 -12 -10 -24 3 -12 11 -13 17 -3 20 6 3 3 6 -8 6 -17 1 -17
3 -5 11 13 8 12 10 -2 10 -10 0 -18 7 -18 16 0 11 -6 14 -20 9 -14 -5 -20 -2
-20 9 0 20 3 20 46 -3z m-6066 -1 c0 -5 -8 -10 -17 -10 -15 0 -16 2 -3 10 19
12 20 12 20 0z m5850 0 c0 -5 -8 -10 -17 -10 -15 0 -16 2 -3 10 19 12 20 12
20 0z m-5560 -100 c-8 -5 -19 -10 -25 -10 -5 0 -3 5 5 10 8 5 20 10 25 10 6 0
3 -5 -5 -10z m5850 0 c-8 -5 -19 -10 -25 -10 -5 0 -3 5 5 10 8 5 20 10 25 10
6 0 3 -5 -5 -10z m-5832 -32 c-3 -7 -12 -14 -21 -16 -12 -2 -15 1 -11 12 7 19
38 22 32 4z m5850 0 c-3 -7 -12 -14 -21 -16 -12 -2 -15 1 -11 12 7 19 38 22
32 4z m-6548 -268 l0 -190 -190 0 -190 0 0 190 0 190 190 0 190 0 0 -190z
m266 176 c8 -8 14 -18 14 -21 0 -16 35 -81 48 -89 8 -4 23 -17 33 -27 11 -11
33 -22 48 -25 23 -5 30 -2 33 12 3 11 6 -34 7 -98 l2 -118 -191 0 -190 0 0
190 0 190 91 0 c65 0 94 -4 105 -14z m634 -176 l0 -190 -190 0 -190 0 0 95 c0
92 1 95 24 101 14 3 23 11 22 17 -2 7 -1 9 1 5 8 -13 31 -9 37 7 3 8 12 15 20
15 20 0 38 34 29 55 -5 14 -2 16 15 11 17 -6 21 -1 27 23 4 17 4 35 1 40 -3 5
40 9 99 10 l105 2 0 -191z m450 0 l0 -190 -190 0 -190 0 0 190 0 190 190 0
190 0 0 -190z m450 0 l0 -190 -190 0 -190 0 0 190 0 190 190 0 190 0 0 -190z
m450 0 l0 -190 -190 0 -190 0 0 190 0 190 190 0 190 0 0 -190z m449 78 c-1
-62 -4 -107 -6 -100 -5 14 -43 17 -43 3 0 -5 -10 -13 -22 -17 -33 -10 -86 -71
-94 -107 -3 -18 -12 -35 -18 -39 -6 -4 -53 -8 -103 -8 l-93 0 0 190 0 190 190
0 191 0 -2 -112z m451 -78 l0 -190 -95 0 -94 0 -12 40 c-7 22 -16 40 -21 40
-5 0 -13 11 -18 24 -5 14 -25 32 -44 41 -20 10 -36 21 -36 26 0 11 -37 12 -43
2 -2 -5 -2 -2 -1 5 2 6 -1 12 -6 12 -6 0 -10 40 -10 95 l0 95 190 0 190 0 0
-190z m450 0 l0 -190 -190 0 -190 0 0 190 0 190 190 0 190 0 0 -190z m450 0
l0 -190 -190 0 -190 0 0 190 0 190 190 0 190 0 0 -190z m450 0 l0 -190 -190 0
-190 0 0 190 0 190 190 0 190 0 0 -190z m450 0 l0 -190 -190 0 -190 0 0 190 0
190 190 0 190 0 0 -190z m450 0 l0 -190 -190 0 -190 0 0 190 0 190 190 0 190
0 0 -190z m450 0 l0 -190 -190 0 -190 0 0 190 0 190 190 0 190 0 0 -190z m266
176 c8 -8 14 -18 14 -21 0 -16 35 -81 48 -89 8 -4 23 -17 33 -27 11 -11 33
-22 48 -25 23 -5 30 -2 33 12 3 11 6 -34 7 -98 l2 -118 -191 0 -190 0 0 190 0
190 91 0 c65 0 94 -4 105 -14z m634 -176 l0 -190 -190 0 -190 0 0 95 c0 92 1
95 24 101 14 3 23 11 22 17 -2 7 -1 9 1 5 8 -13 31 -9 37 7 3 8 12 15 20 15
20 0 38 34 29 55 -5 14 -2 16 15 11 17 -6 21 -1 27 23 4 17 4 35 1 40 -3 5 40
9 99 10 l105 2 0 -191z m450 0 l0 -190 -190 0 -190 0 0 190 0 190 190 0 190 0
0 -190z m450 0 l0 -190 -190 0 -190 0 0 190 0 190 190 0 190 0 0 -190z m-7290
68 c0 -5 7 -8 15 -8 8 0 15 -4 15 -10 0 -14 -7 -13 -35 6 -14 9 -25 22 -25 29
0 7 -6 15 -14 18 -7 3 -16 16 -19 28 -5 18 1 14 28 -17 19 -21 35 -42 35 -46z
m5850 0 c0 -5 7 -8 15 -8 8 0 15 -4 15 -10 0 -14 -7 -13 -35 6 -14 9 -25 22
-25 29 0 7 -6 15 -14 18 -7 3 -16 16 -19 28 -5 18 1 14 28 -17 19 -21 35 -42
35 -46z m-5797 -33 c-3 -9 -8 -14 -10 -11 -3 3 -2 9 2 15 9 16 15 13 8 -4z
m5850 0 c-3 -9 -8 -14 -10 -11 -3 3 -2 9 2 15 9 16 15 13 8 -4z m-5723 -10 c0
-8 -4 -15 -10 -15 -5 0 -10 7 -10 15 0 8 5 15 10 15 6 0 10 -7 10 -15z m5850
0 c0 -8 -4 -15 -10 -15 -5 0 -10 7 -10 15 0 8 5 15 10 15 6 0 10 -7 10 -15z
m-3610 -70 c14 -4 25 -3 30 5 5 8 17 6 45 -9 44 -23 67 -60 53 -86 -9 -15 -7
-16 13 -11 20 6 21 5 7 -4 -10 -6 -18 -19 -17 -28 0 -10 3 -12 6 -4 5 14 33
17 33 2 0 -5 -6 -13 -14 -17 -9 -5 -16 -31 -18 -73 -6 -81 -20 -112 -61 -130
-18 -7 -35 -18 -39 -24 -9 -14 -156 -15 -166 -1 -4 6 -20 17 -36 25 -16 8 -31
21 -34 30 -3 8 -11 20 -18 25 -46 39 -42 202 7 248 10 10 19 22 19 27 0 9 39
26 53 22 4 -1 7 2 7 6 0 9 98 7 130 -3z m-2780 -405 l0 -190 -190 0 -190 0 0
190 0 190 190 0 190 0 0 -190z m450 0 l0 -190 -190 0 -190 0 0 190 0 190 190
0 190 0 0 -190z m450 0 l0 -190 -190 0 -190 0 0 190 0 190 190 0 190 0 0 -190z
m450 0 l0 -190 -190 0 -190 0 0 190 0 190 190 0 190 0 0 -190z m450 0 l0 -190
-190 0 -190 0 0 190 0 190 190 0 190 0 0 -190z m450 0 l0 -190 -190 0 -190 0
0 190 0 190 190 0 190 0 0 -190z m266 176 c8 -8 14 -18 14 -21 0 -16 35 -81
48 -89 8 -4 23 -17 33 -27 10 -10 33 -22 51 -27 l33 -8 3 -97 3 -97 -191 0
-190 0 0 190 0 190 91 0 c65 0 94 -4 105 -14z m634 -176 l0 -190 -190 0 -190
0 0 94 0 94 38 13 c20 6 41 18 45 25 4 8 14 14 22 14 8 0 21 13 30 29 8 16 20
31 26 33 7 2 13 20 13 40 l1 36 103 1 102 2 0 -191z m450 0 l0 -190 -190 0
-190 0 0 190 0 190 190 0 190 0 0 -190z m450 0 l0 -190 -190 0 -190 0 0 190 0
190 190 0 190 0 0 -190z m450 0 l0 -190 -190 0 -190 0 0 190 0 190 190 0 190
0 0 -190z m450 0 l0 -190 -190 0 -190 0 0 190 0 190 190 0 190 0 0 -190z m450
0 l0 -190 -190 0 -190 0 0 190 0 190 190 0 190 0 0 -190z m450 0 l0 -190 -190
0 -190 0 0 190 0 190 190 0 190 0 0 -190z m450 0 l0 -190 -190 0 -190 0 0 190
0 190 190 0 190 0 0 -190z m450 0 l0 -190 -190 0 -190 0 0 190 0 190 190 0
190 0 0 -190z m450 0 l0 -190 -190 0 -190 0 0 190 0 190 190 0 190 0 0 -190z
m450 0 l0 -190 -190 0 -190 0 0 190 0 190 190 0 190 0 0 -190z m-7650 -450 l0
-190 -190 0 -190 0 0 190 0 190 190 0 190 0 0 -190z m450 0 l0 -190 -190 0
-190 0 0 190 0 190 190 0 190 0 0 -190z m450 0 l0 -190 -190 0 -190 0 0 190 0
190 190 0 190 0 0 -190z m450 0 l0 -190 -190 0 -190 0 0 190 0 190 190 0 190
0 0 -190z m450 0 l0 -190 -190 0 -190 0 0 190 0 190 190 0 190 0 0 -190z m450
0 l0 -190 -190 0 -190 0 0 190 0 190 190 0 190 0 0 -190z m450 0 l0 -190 -190
0 -190 0 0 190 0 190 190 0 190 0 0 -190z m450 0 l0 -190 -190 0 -190 0 0 190
0 190 190 0 190 0 0 -190z m449 78 c-1 -62 -4 -107 -6 -100 -5 14 -43 17 -43
3 0 -5 -10 -13 -22 -17 -33 -10 -86 -71 -94 -107 -3 -18 -12 -35 -18 -39 -6
-4 -53 -8 -103 -8 l-93 0 0 190 0 190 190 0 191 0 -2 -112z m451 -78 l0 -190
-95 0 -94 0 -12 40 c-7 22 -16 40 -21 40 -5 0 -13 11 -18 24 -5 14 -25 32 -44
41 -20 10 -36 21 -36 26 0 11 -37 12 -43 2 -2 -5 -2 -2 -1 5 2 6 -1 12 -6 12
-6 0 -10 40 -10 95 l0 95 190 0 190 0 0 -190z m450 0 l0 -190 -190 0 -190 0 0
190 0 190 190 0 190 0 0 -190z m450 0 l0 -190 -190 0 -190 0 0 190 0 190 190
0 190 0 0 -190z m450 0 l0 -190 -190 0 -190 0 0 190 0 190 190 0 190 0 0 -190z
m450 0 l0 -190 -190 0 -190 0 0 190 0 190 190 0 190 0 0 -190z m450 0 l0 -190
-190 0 -190 0 0 190 0 190 190 0 190 0 0 -190z m450 0 l0 -190 -190 0 -190 0
0 190 0 190 190 0 190 0 0 -190z m450 0 l0 -190 -190 0 -190 0 0 190 0 190
190 0 190 0 0 -190z m450 0 l0 -190 -190 0 -190 0 0 190 0 190 190 0 190 0 0
-190z m-3970 -45 c14 -4 25 -3 30 5 5 8 17 6 45 -9 44 -23 67 -60 53 -86 -9
-15 -7 -16 13 -11 20 6 21 5 7 -4 -10 -6 -18 -19 -17 -28 0 -10 3 -12 6 -4 5
14 33 17 33 2 0 -5 -6 -13 -14 -17 -9 -5 -16 -31 -18 -73 -6 -81 -20 -112 -61
-130 -18 -7 -35 -18 -39 -24 -9 -14 -156 -15 -166 -1 -4 6 -20 17 -36 25 -16
8 -31 21 -34 30 -3 8 -11 20 -18 25 -46 39 -42 202 7 248 10 10 19 22 19 27 0
9 39 26 53 22 4 -1 7 2 7 6 0 9 98 7 130 -3z m-3680 -405 l0 -190 -190 0 -190
0 0 190 0 190 190 0 190 0 0 -190z m450 0 l0 -190 -190 0 -190 0 0 190 0 190
190 0 190 0 0 -190z m450 0 l0 -190 -190 0 -190 0 0 190 0 190 190 0 190 0 0
-190z m450 0 l0 -190 -190 0 -190 0 0 190 0 190 190 0 190 0 0 -190z m450 0
l0 -190 -190 0 -190 0 0 190 0 190 190 0 190 0 0 -190z m450 0 l0 -190 -190 0
-190 0 0 190 0 190 190 0 190 0 0 -190z m450 0 l0 -190 -190 0 -190 0 0 190 0
190 190 0 190 0 0 -190z m450 0 l0 -190 -190 0 -190 0 0 190 0 190 190 0 190
0 0 -190z m266 176 c8 -8 14 -18 14 -21 0 -16 35 -81 48 -89 8 -4 23 -17 33
-27 10 -10 33 -22 51 -27 l33 -8 3 -97 3 -97 -191 0 -190 0 0 190 0 190 91 0
c65 0 94 -4 105 -14z m634 -176 l0 -190 -190 0 -190 0 0 94 0 94 38 13 c20 6
41 18 45 25 4 8 14 14 22 14 8 0 21 13 30 29 8 16 20 31 26 33 7 2 13 20 13
40 l1 36 103 1 102 2 0 -191z m450 0 l0 -190 -190 0 -190 0 0 190 0 190 190 0
190 0 0 -190z m450 0 l0 -190 -190 0 -190 0 0 190 0 190 190 0 190 0 0 -190z
m450 0 l0 -190 -190 0 -190 0 0 190 0 190 190 0 190 0 0 -190z m450 0 l0 -190
-190 0 -190 0 0 190 0 190 190 0 190 0 0 -190z m450 0 l0 -190 -190 0 -190 0
0 190 0 190 190 0 190 0 0 -190z m450 0 l0 -190 -190 0 -190 0 0 190 0 190
190 0 190 0 0 -190z m450 0 l0 -190 -190 0 -190 0 0 190 0 190 190 0 190 0 0
-190z m450 0 l0 -190 -190 0 -190 0 0 190 0 190 190 0 190 0 0 -190z m-7650
-450 l0 -190 -190 0 -190 0 0 190 0 190 190 0 190 0 0 -190z m450 0 l0 -190
-190 0 -190 0 0 190 0 190 190 0 190 0 0 -190z m450 0 l0 -190 -190 0 -190 0
0 190 0 190 190 0 190 0 0 -190z m450 0 l0 -190 -190 0 -190 0 0 190 0 190
190 0 190 0 0 -190z m450 0 l0 -190 -190 0 -190 0 0 190 0 190 190 0 190 0 0
-190z m450 0 l0 -190 -190 0 -190 0 0 190 0 190 190 0 190 0 0 -190z m450 0
l0 -190 -190 0 -190 0 0 190 0 190 190 0 190 0 0 -190z m450 0 l0 -190 -190 0
-190 0 0 190 0 190 190 0 190 0 0 -190z m450 0 l0 -190 -190 0 -190 0 0 190 0
190 190 0 190 0 0 -190z m450 0 l0 -190 -190 0 -190 0 0 190 0 190 190 0 190
0 0 -190z m450 0 l0 -190 -190 0 -190 0 0 190 0 190 190 0 190 0 0 -190z m450
0 l0 -190 -190 0 -190 0 0 190 0 190 190 0 190 0 0 -190z m450 0 l0 -190 -190
0 -190 0 0 190 0 190 190 0 190 0 0 -190z m450 0 l0 -190 -190 0 -190 0 0 190
0 190 190 0 190 0 0 -190z m450 0 l0 -190 -190 0 -190 0 0 190 0 190 190 0
190 0 0 -190z m450 0 l0 -190 -190 0 -190 0 0 190 0 190 190 0 190 0 0 -190z
m450 0 l0 -190 -190 0 -190 0 0 190 0 190 190 0 190 0 0 -190z m450 0 l0 -190
-190 0 -190 0 0 190 0 190 190 0 190 0 0 -190z m-7650 -450 l0 -190 -190 0
-190 0 0 190 0 190 190 0 190 0 0 -190z m450 0 l0 -190 -190 0 -190 0 0 190 0
190 190 0 190 0 0 -190z m450 0 l0 -190 -190 0 -190 0 0 190 0 190 190 0 190
0 0 -190z m450 0 l0 -190 -190 0 -190 0 0 190 0 190 190 0 190 0 0 -190z m450
0 l0 -190 -190 0 -190 0 0 190 0 190 190 0 190 0 0 -190z m450 0 l0 -190 -190
0 -190 0 0 190 0 190 190 0 190 0 0 -190z m450 0 l0 -190 -190 0 -190 0 0 190
0 190 190 0 190 0 0 -190z m450 0 l0 -190 -190 0 -190 0 0 190 0 190 190 0
190 0 0 -190z m450 0 l0 -190 -190 0 -190 0 0 190 0 190 190 0 190 0 0 -190z
m450 0 l0 -190 -190 0 -190 0 0 190 0 190 190 0 190 0 0 -190z m450 0 l0 -190
-190 0 -190 0 0 190 0 190 190 0 190 0 0 -190z m450 0 l0 -190 -190 0 -190 0
0 190 0 190 190 0 190 0 0 -190z m450 0 l0 -190 -190 0 -190 0 0 190 0 190
190 0 190 0 0 -190z m450 0 l0 -190 -190 0 -190 0 0 190 0 190 190 0 190 0 0
-190z m450 0 l0 -190 -190 0 -190 0 0 190 0 190 190 0 190 0 0 -190z m450 0
l0 -190 -190 0 -190 0 0 190 0 190 190 0 190 0 0 -190z m450 0 l0 -190 -190 0
-190 0 0 190 0 190 190 0 190 0 0 -190z m450 0 l0 -190 -190 0 -190 0 0 190 0
190 190 0 190 0 0 -190z m-7650 -450 l0 -190 -190 0 -190 0 0 190 0 190 190 0
190 0 0 -190z m450 0 l0 -190 -190 0 -190 0 0 190 0 190 190 0 190 0 0 -190z
m450 0 l0 -190 -190 0 -190 0 0 190 0 190 190 0 190 0 0 -190z m450 0 l0 -190
-190 0 -190 0 0 190 0 190 190 0 190 0 0 -190z m450 0 l0 -190 -190 0 -190 0
0 190 0 190 190 0 190 0 0 -190z m450 0 l0 -190 -190 0 -190 0 0 190 0 190
190 0 190 0 0 -190z m450 0 l0 -190 -190 0 -190 0 0 190 0 190 190 0 190 0 0
-190z m450 0 l0 -190 -190 0 -190 0 0 190 0 190 190 0 190 0 0 -190z m450 0
l0 -190 -190 0 -190 0 0 190 0 190 190 0 190 0 0 -190z m450 0 l0 -190 -190 0
-190 0 0 190 0 190 190 0 190 0 0 -190z m450 0 l0 -190 -190 0 -190 0 0 190 0
190 190 0 190 0 0 -190z m450 0 l0 -190 -190 0 -190 0 0 190 0 190 190 0 190
0 0 -190z m450 0 l0 -190 -190 0 -190 0 0 190 0 190 190 0 190 0 0 -190z m450
0 l0 -190 -190 0 -190 0 0 190 0 190 190 0 190 0 0 -190z m450 0 l0 -190 -190
0 -190 0 0 190 0 190 190 0 190 0 0 -190z m450 0 l0 -190 -190 0 -190 0 0 190
0 190 190 0 190 0 0 -190z m450 0 l0 -190 -190 0 -190 0 0 190 0 190 190 0
190 0 0 -190z m450 0 l0 -190 -190 0 -190 0 0 190 0 190 190 0 190 0 0 -190z
m-7650 -450 l0 -190 -190 0 -190 0 0 190 0 190 190 0 190 0 0 -190z m450 0 l0
-190 -190 0 -190 0 0 190 0 190 190 0 190 0 0 -190z m450 0 l0 -190 -190 0
-190 0 0 190 0 190 190 0 190 0 0 -190z m450 0 l0 -190 -190 0 -190 0 0 190 0
190 190 0 190 0 0 -190z m450 0 l0 -190 -190 0 -190 0 0 190 0 190 190 0 190
0 0 -190z m450 0 l0 -190 -190 0 -190 0 0 190 0 190 190 0 190 0 0 -190z m450
0 l0 -190 -190 0 -190 0 0 190 0 190 190 0 190 0 0 -190z m450 0 l0 -190 -190
0 -190 0 0 190 0 190 190 0 190 0 0 -190z m450 0 l0 -190 -190 0 -190 0 0 190
0 190 190 0 190 0 0 -190z m450 0 l0 -190 -190 0 -190 0 0 190 0 190 190 0
190 0 0 -190z m450 0 l0 -190 -190 0 -190 0 0 190 0 190 190 0 190 0 0 -190z
m450 0 l0 -190 -190 0 -190 0 0 190 0 190 190 0 190 0 0 -190z m450 0 l0 -190
-190 0 -190 0 0 190 0 190 190 0 190 0 0 -190z m450 0 l0 -190 -190 0 -190 0
0 190 0 190 190 0 190 0 0 -190z m450 0 l0 -190 -190 0 -190 0 0 190 0 190
190 0 190 0 0 -190z m450 0 l0 -190 -190 0 -190 0 0 190 0 190 190 0 190 0 0
-190z m450 0 l0 -190 -190 0 -190 0 0 190 0 190 190 0 190 0 0 -190z m450 0
l0 -190 -190 0 -190 0 0 190 0 190 190 0 190 0 0 -190z m-7650 -450 l0 -190
-190 0 -190 0 0 190 0 190 190 0 190 0 0 -190z m450 0 l0 -190 -190 0 -190 0
0 190 0 190 190 0 190 0 0 -190z m450 0 l0 -190 -190 0 -190 0 0 190 0 190
190 0 190 0 0 -190z m450 0 l0 -190 -190 0 -190 0 0 190 0 190 190 0 190 0 0
-190z m450 0 l0 -190 -190 0 -190 0 0 190 0 190 190 0 190 0 0 -190z m450 0
l0 -190 -190 0 -190 0 0 190 0 190 190 0 190 0 0 -190z m450 0 l0 -190 -190 0
-190 0 0 190 0 190 190 0 190 0 0 -190z m450 0 l0 -190 -190 0 -190 0 0 190 0
190 190 0 190 0 0 -190z m450 0 l0 -190 -190 0 -190 0 0 190 0 190 190 0 190
0 0 -190z m450 0 l0 -190 -190 0 -190 0 0 190 0 190 190 0 190 0 0 -190z m450
0 l0 -190 -190 0 -190 0 0 190 0 190 190 0 190 0 0 -190z m450 0 l0 -190 -190
0 -190 0 0 190 0 190 190 0 190 0 0 -190z m450 0 l0 -190 -190 0 -190 0 0 190
0 190 190 0 190 0 0 -190z m450 0 l0 -190 -190 0 -190 0 0 190 0 190 190 0
190 0 0 -190z m450 0 l0 -190 -190 0 -190 0 0 190 0 190 190 0 190 0 0 -190z
m450 0 l0 -190 -190 0 -190 0 0 190 0 190 190 0 190 0 0 -190z m450 0 l0 -190
-190 0 -190 0 0 190 0 190 190 0 190 0 0 -190z m450 0 l0 -190 -190 0 -190 0
0 190 0 190 190 0 190 0 0 -190z m-7650 -450 l0 -190 -190 0 -190 0 0 190 0
190 190 0 190 0 0 -190z m450 0 l0 -190 -190 0 -190 0 0 190 0 190 190 0 190
0 0 -190z m450 0 l0 -190 -190 0 -190 0 0 190 0 190 190 0 190 0 0 -190z m450
0 l0 -190 -190 0 -190 0 0 190 0 190 190 0 190 0 0 -190z m450 0 l0 -190 -190
0 -190 0 0 190 0 190 190 0 190 0 0 -190z m450 0 l0 -190 -190 0 -190 0 0 190
0 190 190 0 190 0 0 -190z m450 0 l0 -190 -190 0 -190 0 0 190 0 190 190 0
190 0 0 -190z m450 0 l0 -190 -190 0 -190 0 0 190 0 190 190 0 190 0 0 -190z
m450 0 l0 -190 -190 0 -190 0 0 190 0 190 190 0 190 0 0 -190z m450 0 l0 -190
-190 0 -190 0 0 190 0 190 190 0 190 0 0 -190z m450 0 l0 -190 -190 0 -190 0
0 190 0 190 190 0 190 0 0 -190z m450 0 l0 -190 -190 0 -190 0 0 190 0 190
190 0 190 0 0 -190z m450 0 l0 -190 -190 0 -190 0 0 190 0 190 190 0 190 0 0
-190z m450 0 l0 -190 -190 0 -190 0 0 190 0 190 190 0 190 0 0 -190z m450 0
l0 -190 -190 0 -190 0 0 190 0 190 190 0 190 0 0 -190z m450 0 l0 -190 -190 0
-190 0 0 190 0 190 190 0 190 0 0 -190z m450 0 l0 -190 -190 0 -190 0 0 190 0
190 190 0 190 0 0 -190z m450 0 l0 -190 -190 0 -190 0 0 190 0 190 190 0 190
0 0 -190z m-7650 -450 l0 -190 -190 0 -190 0 0 190 0 190 190 0 190 0 0 -190z
m450 0 l0 -190 -190 0 -190 0 0 190 0 190 190 0 190 0 0 -190z m450 0 l0 -190
-190 0 -190 0 0 190 0 190 190 0 190 0 0 -190z m450 0 l0 -190 -190 0 -190 0
0 190 0 190 190 0 190 0 0 -190z m450 0 l0 -190 -190 0 -190 0 0 190 0 190
190 0 190 0 0 -190z m450 0 l0 -190 -190 0 -190 0 0 190 0 190 190 0 190 0 0
-190z m450 0 l0 -190 -190 0 -190 0 0 190 0 190 190 0 190 0 0 -190z m450 0
l0 -190 -190 0 -190 0 0 190 0 190 190 0 190 0 0 -190z m450 0 l0 -190 -190 0
-190 0 0 190 0 190 190 0 190 0 0 -190z m450 0 l0 -190 -190 0 -190 0 0 190 0
190 190 0 190 0 0 -190z m450 0 l0 -190 -190 0 -190 0 0 190 0 190 190 0 190
0 0 -190z m450 0 l0 -190 -190 0 -190 0 0 190 0 190 190 0 190 0 0 -190z m450
0 l0 -190 -190 0 -190 0 0 190 0 190 190 0 190 0 0 -190z m450 0 l0 -190 -190
0 -190 0 0 190 0 190 190 0 190 0 0 -190z m450 0 l0 -190 -190 0 -190 0 0 190
0 190 190 0 190 0 0 -190z m450 0 l0 -190 -190 0 -190 0 0 190 0 190 190 0
190 0 0 -190z m450 0 l0 -190 -190 0 -190 0 0 190 0 190 190 0 190 0 0 -190z
m450 0 l0 -190 -190 0 -190 0 0 190 0 190 190 0 190 0 0 -190z m-7650 -450 l0
-190 -190 0 -190 0 0 190 0 190 190 0 190 0 0 -190z m450 0 l0 -190 -190 0
-190 0 0 190 0 190 190 0 190 0 0 -190z m450 0 l0 -190 -190 0 -190 0 0 190 0
190 190 0 190 0 0 -190z m450 0 l0 -190 -190 0 -190 0 0 190 0 190 190 0 190
0 0 -190z m450 0 l0 -190 -190 0 -190 0 0 190 0 190 190 0 190 0 0 -190z m450
0 l0 -190 -190 0 -190 0 0 190 0 190 190 0 190 0 0 -190z m450 0 l0 -190 -190
0 -190 0 0 190 0 190 190 0 190 0 0 -190z m450 0 l0 -190 -190 0 -190 0 0 190
0 190 190 0 190 0 0 -190z m450 0 l0 -190 -190 0 -190 0 0 190 0 190 190 0
190 0 0 -190z m450 0 l0 -190 -190 0 -190 0 0 190 0 190 190 0 190 0 0 -190z
m450 0 l0 -190 -190 0 -190 0 0 190 0 190 190 0 190 0 0 -190z m450 0 l0 -190
-190 0 -190 0 0 190 0 190 190 0 190 0 0 -190z m450 0 l0 -190 -190 0 -190 0
0 190 0 190 190 0 190 0 0 -190z m450 0 l0 -190 -190 0 -190 0 0 190 0 190
190 0 190 0 0 -190z m450 0 l0 -190 -190 0 -190 0 0 190 0 190 190 0 190 0 0
-190z m450 0 l0 -190 -190 0 -190 0 0 190 0 190 190 0 190 0 0 -190z m450 0
l0 -190 -190 0 -190 0 0 190 0 190 190 0 190 0 0 -190z m450 0 l0 -190 -190 0
-190 0 0 190 0 190 190 0 190 0 0 -190z"/>
<path d="M3860 5940 c6 -11 18 -19 28 -19 16 1 16 2 0 6 -10 2 -18 11 -18 19
0 8 -5 14 -10 14 -7 0 -7 -6 0 -20z"/>
<path d="M4760 5040 c6 -11 18 -19 28 -19 16 1 16 2 0 6 -10 2 -18 11 -18 19
0 8 -5 14 -10 14 -7 0 -7 -6 0 -20z"/>
<path d="M4 6785 c0 -82 2 -115 3 -72 2 43 2 110 0 150 -1 40 -3 5 -3 -78z"/>
<path d="M4 5970 c0 -129 2 -182 3 -117 2 64 2 170 0 235 -1 64 -3 11 -3 -118z"/>
<path d="M11287 4903 c843 -2 2223 -2 3065 0 843 1 154 2 -1532 2 -1686 0
-2375 -1 -1533 -2z"/>
<path d="M12760 4320 c0 -103 1 -110 20 -110 19 0 20 7 20 110 0 103 -1 110
-20 110 -19 0 -20 -7 -20 -110z"/>
<path d="M12880 4333 c-18 -54 -35 -104 -38 -110 -2 -8 4 -13 15 -13 12 0 23
11 30 30 10 26 16 30 51 30 37 0 41 -3 47 -30 5 -21 13 -30 26 -30 10 0 19 4
19 8 0 4 -15 53 -33 107 -30 89 -36 100 -59 103 -25 3 -28 -2 -58 -95z m79
-15 c1 -13 -7 -18 -24 -18 -28 0 -30 7 -13 63 l12 40 12 -34 c7 -19 13 -42 13
-51z"/>
<path d="M10827 863 c-11 -19 -48 -156 -43 -160 9 -10 26 8 26 28 0 17 6 20
33 17 24 -2 33 -8 35 -25 2 -13 10 -23 18 -23 18 0 18 2 -10 90 -22 68 -45 97
-59 73z m32 -75 c1 -12 -6 -18 -19 -18 -24 0 -23 -2 -8 40 10 30 12 32 19 14
4 -10 8 -27 8 -36z"/>
<path d="M11370 785 c0 -50 4 -85 10 -85 6 0 10 35 10 85 0 50 -4 85 -10 85
-6 0 -10 -35 -10 -85z"/>
<path d="M11860 855 c0 -8 5 -15 10 -15 6 0 10 7 10 15 0 8 -4 15 -10 15 -5 0
-10 -7 -10 -15z"/>
<path d="M12260 785 c0 -50 4 -85 10 -85 6 0 10 35 10 85 0 50 -4 85 -10 85
-6 0 -10 -35 -10 -85z"/>
<path d="M12330 855 c0 -8 5 -15 10 -15 6 0 10 7 10 15 0 8 -4 15 -10 15 -5 0
-10 -7 -10 -15z"/>
<path d="M12960 833 c0 -29 -3 -34 -12 -25 -16 16 -33 15 -52 -4 -22 -22 -20
-67 5 -90 17 -15 23 -16 40 -6 11 7 19 8 19 2 0 -5 5 -10 10 -10 6 0 10 35 10
85 0 50 -4 85 -10 85 -5 0 -10 -17 -10 -37z m-5 -73 c0 -28 -4 -35 -20 -35
-13 0 -21 8 -23 23 -5 34 5 54 25 50 13 -2 18 -13 18 -38z"/>
<path d="M13260 855 c0 -8 5 -15 10 -15 6 0 10 7 10 15 0 8 -4 15 -10 15 -5 0
-10 -7 -10 -15z"/>
<path d="M13910 785 c0 -50 4 -85 10 -85 6 0 10 35 10 85 0 50 -4 85 -10 85
-6 0 -10 -35 -10 -85z"/>
<path d="M14330 785 c0 -50 4 -85 10 -85 6 0 10 35 10 85 0 50 -4 85 -10 85
-6 0 -10 -35 -10 -85z"/>
<path d="M13331 838 c-10 -28 -3 -108 11 -125 12 -15 48 -17 48 -3 0 6 -7 10
-15 10 -11 0 -15 11 -15 40 0 29 4 40 15 40 8 0 15 5 15 10 0 6 -7 10 -15 10
-8 0 -15 9 -15 20 0 27 -19 25 -29 -2z"/>
<path d="M14531 838 c-10 -28 -3 -108 11 -125 12 -15 48 -17 48 -3 0 6 -7 10
-15 10 -11 0 -15 11 -15 40 0 29 4 40 15 40 8 0 15 5 15 10 0 6 -7 10 -15 10
-8 0 -15 9 -15 20 0 27 -19 25 -29 -2z"/>
<path d="M10950 760 c0 -33 4 -60 10 -60 6 0 10 17 10 39 0 39 20 68 40 56 5
-3 10 -26 10 -51 0 -33 4 -44 16 -44 12 0 14 10 12 51 -3 60 -24 82 -58 61
-12 -7 -20 -8 -20 -2 0 5 -4 10 -10 10 -6 0 -10 -27 -10 -60z"/>
<path d="M11090 760 c0 -33 4 -60 10 -60 6 0 10 17 10 39 0 39 20 68 40 56 5
-3 10 -26 10 -51 0 -33 4 -44 16 -44 12 0 14 10 12 51 -3 60 -24 82 -58 61
-12 -7 -20 -8 -20 -2 0 5 -4 10 -10 10 -6 0 -10 -27 -10 -60z"/>
<path d="M11230 765 c0 -61 16 -78 51 -56 12 7 19 7 19 1 0 -5 7 -10 15 -10
12 0 15 13 15 60 0 47 -3 60 -15 60 -11 0 -15 -12 -15 -44 0 -31 -5 -46 -16
-50 -26 -10 -34 2 -34 50 0 24 -4 44 -10 44 -5 0 -10 -25 -10 -55z"/>
<path d="M11446 798 c-39 -55 6 -116 68 -92 17 7 22 34 6 34 -5 0 -10 -5 -10
-11 0 -14 -42 -7 -48 9 -2 8 9 12 37 12 47 0 54 17 21 50 -26 26 -55 25 -74
-2z m62 -15 c2 -8 -6 -13 -22 -13 -25 0 -33 10 -19 24 10 10 36 3 41 -11z"/>
<path d="M11580 760 c0 -69 16 -81 22 -17 5 48 0 77 -13 77 -5 0 -9 -27 -9
-60z"/>
<path d="M11615 809 c-4 -6 -5 -13 -2 -16 7 -7 27 6 27 18 0 12 -17 12 -25 -2z"/>
<path d="M11730 814 c0 -4 8 -31 17 -61 11 -36 22 -53 31 -51 14 3 57 107 48
116 -10 9 -25 -10 -31 -41 -12 -52 -18 -54 -30 -8 -6 25 -16 46 -23 49 -7 2
-12 0 -12 -4z"/>
<path d="M11860 760 c0 -33 4 -60 10 -60 6 0 10 27 10 60 0 33 -4 60 -10 60
-6 0 -10 -27 -10 -60z"/>
<path d="M11943 813 c-12 -4 -19 -33 -8 -33 3 0 14 6 25 13 17 10 22 9 30 -3
7 -12 3 -16 -21 -21 -38 -8 -53 -23 -46 -44 9 -22 36 -30 58 -16 12 7 19 7 19
1 0 -5 5 -10 10 -10 14 0 12 94 -2 108 -12 12 -43 15 -65 5z m45 -79 c-9 -10
-24 -14 -33 -10 -23 9 -9 26 23 26 24 0 25 -1 10 -16z"/>
<path d="M12136 798 c-9 -12 -16 -32 -16 -44 0 -42 63 -71 89 -41 14 18 2 30
-15 16 -22 -18 -44 -3 -44 31 0 34 22 49 44 31 17 -14 29 -2 15 16 -17 20 -56
16 -73 -9z"/>
<path d="M12330 760 c0 -33 4 -60 10 -60 6 0 10 27 10 60 0 33 -4 60 -10 60
-6 0 -10 -27 -10 -60z"/>
<path d="M12405 804 c-21 -22 -19 -68 6 -90 17 -15 23 -16 40 -6 17 11 19 9
19 -18 0 -16 5 -30 10 -30 6 0 10 32 10 78 l0 77 -35 2 c-20 1 -41 -5 -50 -13z
m60 -44 c0 -28 -4 -35 -20 -35 -13 0 -21 8 -23 23 -5 34 5 54 25 50 13 -2 18
-13 18 -38z"/>
<path d="M12540 765 c0 -61 16 -78 51 -56 12 7 19 7 19 1 0 -5 7 -10 15 -10
12 0 15 13 15 60 0 47 -3 60 -15 60 -11 0 -15 -12 -15 -44 0 -31 -5 -46 -16
-50 -26 -10 -34 2 -34 50 0 24 -4 44 -10 44 -5 0 -10 -25 -10 -55z"/>
<path d="M12686 798 c-39 -55 6 -116 68 -92 17 7 22 34 6 34 -5 0 -10 -5 -10
-11 0 -14 -42 -7 -48 9 -2 8 9 12 37 12 47 0 54 17 21 50 -26 26 -55 25 -74
-2z m62 -15 c2 -8 -6 -13 -22 -13 -25 0 -33 10 -19 24 10 10 36 3 41 -11z"/>
<path d="M13030 760 c0 -69 16 -81 22 -17 5 48 0 77 -13 77 -5 0 -9 -27 -9
-60z"/>
<path d="M13065 809 c-4 -6 -5 -13 -2 -16 7 -7 27 6 27 18 0 12 -17 12 -25 -2z"/>
<path d="M13126 798 c-9 -12 -16 -29 -16 -38 0 -9 7 -26 16 -38 22 -31 63 -26
84 11 13 24 13 30 0 55 -21 36 -62 41 -84 10z m59 -38 c0 -28 -4 -35 -20 -35
-13 0 -21 8 -23 23 -5 34 5 54 25 50 13 -2 18 -13 18 -38z"/>
<path d="M13260 760 c0 -33 4 -60 10 -60 6 0 10 27 10 60 0 33 -4 60 -10 60
-6 0 -10 -27 -10 -60z"/>
<path d="M13491 806 c-17 -20 -3 -44 30 -51 16 -4 29 -13 29 -21 0 -16 -36
-19 -45 -4 -4 6 -11 8 -16 4 -14 -8 9 -34 31 -34 33 0 50 12 50 35 0 18 -7 25
-30 30 -16 4 -30 13 -30 21 0 16 26 19 35 4 4 -6 11 -8 16 -4 16 9 -10 34 -36
34 -12 0 -28 -6 -34 -14z"/>
<path d="M13610 765 c0 -61 16 -78 51 -56 12 7 19 7 19 1 0 -5 7 -10 15 -10
12 0 15 13 15 60 0 47 -3 60 -15 60 -11 0 -15 -12 -15 -44 0 -31 -5 -46 -16
-50 -26 -10 -34 2 -34 50 0 24 -4 44 -10 44 -5 0 -10 -25 -10 -55z"/>
<path d="M13750 760 c0 -69 16 -81 22 -17 5 48 0 77 -13 77 -5 0 -9 -27 -9
-60z"/>
<path d="M13785 809 c-4 -6 -5 -13 -2 -16 7 -7 27 6 27 18 0 12 -17 12 -25 -2z"/>
<path d="M13986 798 c-39 -55 6 -116 68 -92 17 7 22 34 6 34 -5 0 -10 -5 -10
-11 0 -14 -42 -7 -48 9 -2 8 9 12 37 12 47 0 54 17 21 50 -26 26 -55 25 -74
-2z m62 -15 c2 -8 -6 -13 -22 -13 -25 0 -33 10 -19 24 10 10 36 3 41 -11z"/>
<path d="M14190 740 c0 -47 4 -80 10 -80 10 0 15 41 11 91 -2 34 23 57 44 39
22 -18 15 -52 -13 -66 -15 -7 -20 -14 -13 -19 19 -11 51 5 57 30 14 58 -17
102 -56 77 -12 -7 -20 -8 -20 -2 0 5 -4 10 -10 10 -6 0 -10 -33 -10 -80z"/>
<path d="M14413 813 c-12 -4 -19 -33 -8 -33 3 0 14 6 25 13 17 10 22 9 30 -3
7 -12 3 -16 -21 -21 -38 -8 -53 -23 -46 -44 9 -22 36 -30 58 -16 12 7 19 7 19
1 0 -5 5 -10 10 -10 14 0 12 94 -2 108 -12 12 -43 15 -65 5z m45 -79 c-9 -10
-24 -14 -33 -10 -23 9 -9 26 23 26 24 0 25 -1 10 -16z"/>
<path d="M14626 798 c-39 -55 6 -116 68 -92 17 7 22 34 6 34 -5 0 -10 -5 -10
-11 0 -14 -42 -7 -48 9 -2 8 9 12 37 12 47 0 54 17 21 50 -26 26 -55 25 -74
-2z m62 -15 c2 -8 -6 -13 -22 -13 -25 0 -33 10 -19 24 10 10 36 3 41 -11z"/>
<path d="M14773 813 c-12 -4 -19 -33 -8 -33 3 0 14 6 25 13 17 10 22 9 30 -3
7 -12 3 -16 -21 -21 -38 -8 -53 -23 -46 -44 9 -22 36 -30 58 -16 12 7 19 7 19
1 0 -5 5 -10 10 -10 14 0 12 94 -2 108 -12 12 -43 15 -65 5z m45 -79 c-9 -10
-24 -14 -33 -10 -23 9 -9 26 23 26 24 0 25 -1 10 -16z"/>
<path d="M14890 765 c0 -61 16 -78 51 -56 12 7 19 7 19 1 0 -5 7 -10 15 -10
12 0 15 13 15 60 0 47 -3 60 -15 60 -11 0 -15 -12 -15 -44 0 -31 -5 -46 -16
-50 -26 -10 -34 2 -34 50 0 24 -4 44 -10 44 -5 0 -10 -25 -10 -55z"/>
</g>
</svg>
